<svg xmlns="http://www.w3.org/2000/svg" width="96.296" height="363.24" viewBox="0 0 96.296 363.24">
  <g>
    <path d="M1.124,4.764.81,5.078.5,4.764V2.479L.81,2.165l.314.314ZM.5,5.63.81,5.316l.314.314V7.915L.81,8.229.5,7.915ZM3.527,2.36H1.243L.929,2.045l.314-.314H3.527l.316.314ZM.929,5.2l.314-.315H3.527l.316.315-.316.315H1.243Zm.314,2.837H3.527l.316.315-.316.314H1.243L.929,8.349Zm2.4-.119V5.63l.315-.314.314.314V7.915l-.314.314Z" transform="translate(-0.495 -1.728)"/>
    <path d="M5.58,2.169l.315.315V4.76l-.315.315L5.266,4.76V2.484ZM5.9,5.63V7.915l-.315.314-.314-.314V5.63l.314-.314Zm.119,2.4H8.3l.315.315L8.3,8.663H6.014L5.7,8.349Z" transform="translate(-0.495 -1.728)"/>
    <path d="M9.105,3.949l.315-.314.314.314V6.24l-.314.315L9.105,6.24Zm.844-.517H9.5V2.987l.963-.963h.445v.445Zm.518,4.733L9.5,7.2V6.757h.445l.963.963v.445Z" transform="translate(-0.495 -1.728)"/>
    <path d="M12.221,2.169l.314.315V4.76l-.314.315-.315-.315V2.484Zm.314,3.461V7.915l-.314.314-.315-.314V5.63l.315-.314Zm.119,2.4h2.284l.316.315-.316.314H12.654l-.314-.314Z" transform="translate(-0.495 -1.728)"/>
    <path d="M17.648,2.987v.445H17.2l-.963-.963V2.024h.446ZM17.2,6.757h.444V7.2l-.961.963h-.446V7.72Zm.529-3.122.315.314V6.24l-.315.315-.315-.315V3.949Z" transform="translate(-0.495 -1.728)"/>
    <path d="M21.156,4.7l-.314.315L20.527,4.7V2.417l.315-.315.314.315Zm-.629.867.315-.315.314.315V7.853l-.314.314-.315-.314Z" transform="translate(-0.495 -1.728)"/>
    <path d="M22.729,4.761l-.314.314L22.1,4.761V2.476l.314-.314.314.314Zm-.628.866.314-.314.314.314V7.912l-.314.315L22.1,7.912Zm3.032-3.27H22.849l-.315-.315.315-.314h2.284l.315.314ZM22.849,8.031h2.284l.315.315-.315.314H22.849l-.315-.314Zm2.4-3.27V2.476l.314-.314.315.314V4.761l-.315.314Zm0,.866.314-.314.315.314V7.912l-.315.315-.314-.315Z" transform="translate(-0.495 -1.728)"/>
    <path d="M27.5,4.761l-.314.314-.315-.314V2.476l.315-.314.314.314Zm-.629.866.315-.314.314.314V7.912l-.314.315-.315-.315ZM29.9,2.357H27.619l-.314-.315.314-.314H29.9l.316.314ZM27.619,8.031H29.9l.316.315L29.9,8.66H27.619l-.314-.314Zm2.4-3.27V2.476l.315-.314.314.314V4.761l-.314.314Zm0,.866.315-.314.314.314V7.912l-.314.315-.315-.315Z" transform="translate(-0.495 -1.728)"/>
    <path d="M1.124,14.293v2.285l-.314.315L.5,16.578V14.293l.315-.314Zm2.4,2.4.316.314-.316.315H1.243l-.314-.315.314-.314Zm.434.2-.315-.315V14.293l.315-.314.314.314v2.285Zm-.315.552.315-.315.314.315v2.284l-.314.315-.315-.315Z" transform="translate(-0.495 -1.728)"/>
    <path d="M5.835,16.638l-.314.314-.315-.314V14.353l.315-.314.314.314Zm-.629.866.315-.314.314.314v2.285l-.314.315-.315-.315Zm3.032-3.27H5.954l-.314-.315.314-.314H8.238l.316.314ZM5.954,19.908H8.238l.316.315-.316.314H5.954l-.314-.314Zm2.4-3.27V14.353l.315-.314.314.314v2.285l-.314.314Zm0,.866.315-.314.314.314v2.285l-.314.315-.315-.315Z" transform="translate(-0.495 -1.728)"/>
    <path d="M11.775,13.944l.315.314v2.285l-.315.314-.314-.314V14.258Zm.53,4.692.963.963v.445h-.446l-.963-.963v-.445Zm2.188-1.974.316.315-.316.314H12.209l-.314-.314.314-.315Zm-.613-2.753.963.963v.445H14.4l-.962-.963v-.445Zm.732,5.785V17.41l.315-.315.314.315v2.284l-.314.315Zm0-2.284.315-.315Z" transform="translate(-0.495 -1.728)"/>
    <path d="M16.546,14.046l.314.315v2.276l-.314.315-.315-.315V14.361Zm.314,3.461v2.285l-.314.314-.315-.314V17.507l.315-.314Zm.119,2.4h2.285l.315.315-.315.314H16.979l-.314-.314Z" transform="translate(-0.495 -1.728)"/>
    <path d="M21.2,19.788l-.257.257-.057.058-.315-.315V17.5l.315-.315.314.315ZM23.55,14.4v.445l-2.14,2.14h-.445v-.446L23.1,14.4Zm.049,5.5.315.315-.315.314H21.314L21,20.222l.314-.315Zm.119-3.262V14.354l.314-.315.316.315v2.291l-.309.307-.007-.007-.007.007Zm0,.853.307-.308.007.007.007-.007.308.308v2.29l-.315.315-.314-.315Zm.314-.553.007.007-.007.007-.007-.007Z" transform="translate(-0.495 -1.728)"/>
    <path d="M25.966,16.63l-.315.315-.314-.315V14.346l.314-.315.315.315Zm-.316.554.316.316v2.282l-.315.314-.314-.314V17.5Zm.121-.118h0l.317.316h0Zm.314,3.467-.314-.315.314-.315,2.284,0,.316.314-.316.315Zm0-3.152-.317-.316.314-.313,2.284,0,.316.314-.316.315Z" transform="translate(-0.495 -1.728)"/>
    <path d="M33.744,19.3v.444H33.3L31.156,17.6v-.445H31.6Zm-2.238.612h1.723v0h.563l.312.313-.314.314H31.506l-.315-.314Zm1.723,0v0h.561l0,0Z" transform="translate(-0.495 -1.728)"/>
    <path d="M37.684,19.3v.444h-.447L35.1,17.6v-.445h.445Zm-2.239.612h1.723v0h.562l.313.313-.315.314H35.445l-.314-.314Zm1.724,0v0h.561l0,0Z" transform="translate(-0.495 -1.728)"/>
    <path d="M40.52,17.443l.314-.314.314.314v2.285l-.314.314-.314-.314Zm3.347-.433-.315.315H41.268l-.315-.315.315-.315h2.284Zm-.41-3.069H43.9v.445l-2.14,2.14h-.445v-.444Zm.214,5.787V17.443l.314-.314.316.314v2.285l-.316.314Z" transform="translate(-0.495 -1.728)"/>
    <path d="M45.919,14.257v2.285l-.315.314-.314-.314V14.257l.314-.315ZM45.6,17.094l.315.314v2.285l-.315.314-.314-.314V17.408Zm.434-.434h2.284l.316.315-.316.315H46.038l-.314-.315Zm1.79-.168-1.74-1.741v-.445h.444l1.741,1.741v.445ZM46.088,17.9v-.445h.444l2.14,2.139v.445h-.444Z" transform="translate(-0.495 -1.728)"/>
    <path d="M1.124,28.455.81,28.77.5,28.455V26.17l.315-.314.314.314ZM.5,29.322l.315-.315.314.315v2.284l-.314.315L.5,31.606Z" transform="translate(-0.495 -1.728)"/>
    <path d="M2.7,28.515l-.314.314-.315-.314V26.23l.315-.314.314.314Zm-.629.866.315-.314.314.314v2.285l-.314.314-.315-.314ZM5.1,26.111H2.816L2.5,25.8l.314-.314H5.1l.315.314ZM2.816,31.785H5.1l.315.315-.315.314H2.816L2.5,32.1Zm2.4-3.27V26.23l.314-.314.315.314v2.285l-.315.314Zm0,.866.314-.314.315.314v2.285l-.315.314-.314-.314Z" transform="translate(-0.495 -1.728)"/>
    <path d="M7.468,28.515l-.315.314-.314-.314V26.23l.314-.314.315.314Zm-.629.866.314-.314.315.314v2.285l-.315.314-.314-.314Zm3.032-3.27H7.587L7.272,25.8l.315-.314H9.871l.316.314ZM7.587,31.785H9.871l.316.315-.316.314H7.587L7.272,32.1Zm2.4-3.27V26.23l.315-.314.314.314v2.285l-.314.314Zm0,.866.315-.314.314.314v2.285l-.314.314-.315-.314Z" transform="translate(-0.495 -1.728)"/>
    <path d="M13.409,25.821l.315.314V28.42l-.315.314L13.1,28.42V26.135Zm.529,4.692.963.963v.445h-.445l-.963-.963v-.445Zm2.189-1.974.315.315-.315.314H13.843l-.315-.314.315-.315Zm-.613-2.753.963.963v.445h-.445l-.963-.963v-.445Zm.732,5.785V29.287l.315-.315.314.315v2.284l-.314.315Zm0-2.284.315-.315Z" transform="translate(-0.495 -1.728)"/>
    <path d="M18.179,25.923l.314.315v2.276l-.314.315-.315-.315V26.238Zm.314,3.461v2.285l-.314.314-.315-.314V29.384l.315-.314Zm.119,2.4H20.9l.316.315-.316.314H18.612L18.3,32.1Z" transform="translate(-0.495 -1.728)"/>
    <path d="M22.828,31.665l-.257.257-.057.058-.315-.315v-2.29l.315-.315.314.315Zm2.355-5.385v.445l-2.14,2.14H22.6v-.446l2.139-2.139Zm.048,5.5.316.315-.316.314H22.947l-.314-.314.314-.315Zm.12-3.263v-2.29l.314-.315.315.315v2.29l-.308.308-.007-.007-.007.007Zm0,.854.307-.308.007.007.007-.007.307.308v2.29l-.314.315-.314-.315Zm.314-.553.007.007-.007.007-.007-.007Z" transform="translate(-0.495 -1.728)"/>
    <path d="M27.6,28.507l-.315.315-.314-.315V26.223l.314-.315.315.315Zm-.316.554.316.316v2.282l-.315.314-.314-.314V29.375Zm.12-.118h0l.317.316h0Zm.315,3.467L27.4,32.1l.315-.315L30,31.775l.315.314L30,32.4Zm0-3.152-.317-.316.314-.313L30,28.624l.315.314L30,29.253Z" transform="translate(-0.495 -1.728)"/>
    <path d="M35.378,31.173v.444h-.446L32.79,29.475V29.03h.445Zm-2.238.612h1.722v0h.563l.312.313-.314.314H33.14l-.315-.314Zm1.723,0v0h.562l0,0Z" transform="translate(-0.495 -1.728)"/>
    <path d="M39.316,31.173v.444H38.87l-2.141-2.142V29.03h.445Zm-2.238.612H38.8v0h.562l.313.313-.315.314H37.078l-.314-.314Zm1.724,0v0h.561l0,0Z" transform="translate(-0.495 -1.728)"/>
    <path d="M42.152,29.32l.315-.314.314.314v2.285l-.314.314-.315-.314Zm3.348-.433-.315.315H42.9l-.314-.315.314-.315h2.285Zm-.41-3.069h.444v.445l-2.14,2.14h-.445v-.445Zm.214,5.787V29.32l.314-.314.316.314v2.285l-.316.314Z" transform="translate(-0.495 -1.728)"/>
    <path d="M47.237,25.923l.315.315v2.276l-.315.315-.314-.315V26.238Zm.315,3.461v2.285l-.315.314-.314-.314V29.384l.314-.314Zm.119,2.4h2.284l.316.315-.316.314H47.671l-.315-.314Z" transform="translate(-0.495 -1.728)"/>
    <path d="M52.742,28.454V26.17l.315-.315.314.315v2.284l-.314.315Zm0,.867.315-.314.314.314v2.284l-.314.315-.315-.315Zm1.244-3.1,2.14,2.139V28.8h-.445l-2.14-2.139v-.445Zm2.222,2.789.314.314v2.284l-.314.315-.314-.315V29.321Z" transform="translate(-0.495 -1.728)"/>
    <path d="M57.738,28.738l-.314-.315V26.139l.314-.315.315.315v2.284Zm.084.648V28.94h.446l2.538,2.539v.445h-.445Zm2.949-3.681-.315.315H58.172l-.315-.315.315-.314h2.284Z" transform="translate(-0.495 -1.728)"/>
    <path d="M1.124,40.332l-.314.314L.5,40.332V38.047l.315-.315.314.315ZM.5,41.2l.315-.314.314.314v2.285L.81,43.8.5,43.483Z" transform="translate(-0.495 -1.728)"/>
    <path d="M2.324,43.857l-.314-.315V41.258l.314-.315.315.315v2.284Zm2.718-6.5.315.315-.315.315H2.758l-.315-.315.315-.315ZM2.758,40.51H5.042l.315.314-.315.315H2.758l-.315-.315Zm-.315,3.466.315-.315H5.042l.315.315-.315.315H2.758Zm2.718-3.585V38.106l.315-.314.314.314v2.285l-.314.315Z" transform="translate(-0.495 -1.728)"/>
    <path d="M7.261,40.391l-.315.315-.314-.315V38.106l.314-.314.315.314Zm-.629.867.314-.315.315.315v2.284l-.315.315-.314-.315Zm3.032-3.27H7.38l-.315-.315.315-.315H9.664l.315.315ZM7.38,43.661H9.664l.315.315-.315.315H7.38l-.315-.315Zm2.4-3.27V38.106l.315-.314.314.314v2.285l-.314.315Zm0,.867.315-.315.314.315v2.284l-.314.315-.315-.315Z" transform="translate(-0.495 -1.728)"/>
    <path d="M13.516,40.394l-.315.314-.314-.314V38.109L13.2,37.8l.315.314Zm-.629.867.314-.315.315.315v2.284l-.315.315-.314-.315Zm3.032-3.27H13.635l-.315-.315.315-.315h2.284l.315.315Zm-2.6,2.836.315-.314h2.284l.315.314-.315.315H13.635Zm.315,2.837h2.284l.315.315-.315.314H13.635l-.315-.314Zm2.4-.119V41.261l.315-.315.314.315v2.284l-.314.315Z" transform="translate(-0.495 -1.728)"/>
    <path d="M18.286,38.01V40.3l-.314.314-.315-.314V38.01l.315-.314Zm-.314,2.837.314.315v2.284l-.314.315-.315-.315V41.162Zm.433-.433h2.284l.316.314-.316.315H18.405l-.314-.315Zm1.79-.168L18.455,38.5V38.06H18.9l1.742,1.74v.446Zm-1.74,1.41v-.445H18.9l2.14,2.14V43.8H20.6Z" transform="translate(-0.495 -1.728)"/>
    <path d="M23.516,43.976l.314-.315h2.284l.316.315-.316.315H23.83Zm2.948-2.622-2.14,2.139H23.88v-.445l2.14-2.139h.444Z" transform="translate(-0.495 -1.728)"/>
    <path d="M28.939,41.2l.315-.315.314.315v2.286l-.314.314-.315-.314Zm.844-.518h-.445v-.445l2.539-2.538h.444v.445Z" transform="translate(-0.495 -1.728)"/>
    <path d="M35.113,40.614,34.8,40.3V38.015l.314-.315.315.315V40.3Zm.084.648v-.445h.446l2.538,2.538V43.8h-.445Zm2.949-3.68-.315.314H35.547l-.315-.314.315-.315h2.284Z" transform="translate(-0.495 -1.728)"/>
    <path d="M40.972,37.792l.314.314v2.285l-.314.315-.315-.315V38.106Zm2.717.2H41.405l-.314-.315.314-.315h2.284l.316.315Zm-2.6,2.836.314-.314h2.284l.316.314-.316.315H41.405Zm.314,2.837h2.284l.316.315-.316.315H41.405l-.314-.315Zm2.718.2-.314-.315V41.258l.314-.315.315.315v2.284Z" transform="translate(-0.495 -1.728)"/>
    <path d="M45.908,40.391l-.314.315-.315-.315V38.106l.315-.314.314.314Zm-.629.867.315-.315.314.315v2.284l-.314.315-.315-.315Zm3.033-3.27H46.027l-.314-.315.314-.315h2.285l.315.315Zm-2.285,5.673h2.285l.315.315-.315.315H46.027l-.314-.315Zm2.4-3.27V38.106l.314-.314.315.314v2.285l-.315.315Zm0,.867.314-.315.315.315v2.284l-.315.315-.314-.315Z" transform="translate(-0.495 -1.728)"/>
    <path d="M.81,49.57l.314.315v2.282l-.314.314L.5,52.167V49.885Zm0,3.152.314.315v2.284l-.314.315L.5,55.321V53.037Zm.433.193L.929,52.6l.09-.089.224-.226H3.527l.316.315-.316.315Zm.05.616v-.445h.444l2.14,2.139v.445H3.432Z" transform="translate(-0.495 -1.728)"/>
    <path d="M5.5,52.266l-.314.314-.315-.314V49.981l.315-.314.314.314Zm-.314.552.314.314v2.285l-.314.314-.315-.314V53.132ZM5.3,52.7l.314-.315H7.9l.316.315-.316.315H5.617Zm.314,3.466L5.3,55.851l.314-.315H7.9l.316.315-.316.314Zm1.792-3.95L5.668,50.474v-.445h.445L7.854,51.77v.445Z" transform="translate(-0.495 -1.728)"/>
    <path d="M9.754,52.266l-.315.314-.314-.314V49.981l.314-.314.315.314Zm-.315.552.315.314v2.285l-.315.314-.314-.314V53.132Zm.12-.119.314-.315h2.284l.316.315-.316.315H9.873Zm.314,3.466-.314-.314.314-.315h2.284l.316.315-.316.314Zm1.792-3.95L9.924,50.474v-.445h.445L12.11,51.77v.445Z" transform="translate(-0.495 -1.728)"/>
    <path d="M14.089,49.922v2.285l-.315.314-.314-.314V49.922l.314-.314Zm-.629,3.152.314-.315.315.315v2.284l-.315.315-.314-.315Zm.748-.748h2.284l.316.315-.316.314H14.208l-.314-.314ZM16,52.158l-1.74-1.741v-.445H14.7l1.741,1.741v.445Z" transform="translate(-0.495 -1.728)"/>
    <path d="M18.109,49.6l.315.314V52.2l-.315.314L17.8,52.2V49.917ZM17.8,53.068l.314-.314.315.314v2.285l-.315.314-.314-.314Zm1.242-3.1,1.742,1.742v.444h-.445l-1.741-1.74v-.446Zm2.224,5.7-.315-.314V53.068l.315-.314.315.314v2.285Zm-.314-5.75.315-.314.314.314V52.2l-.314.314-.315-.314Zm.8.495v-.446h.445L24.327,52.1v.445h-.445Zm2.668,2.342.316.314v2.285l-.316.314-.314-.314V53.068Z" transform="translate(-0.495 -1.728)"/>
    <path d="M27.208,53.072l.314-.315.315.315v2.286l-.315.314-.314-.314Zm.844-.518h-.446v-.445l2.54-2.538h.444v.445Z" transform="translate(-0.495 -1.728)"/>
    <path d="M33.512,49.538l2.139,2.139v.445h-.445l-2.14-2.14v-.444Zm-.446,5.689L35.6,52.689h.446v.445l-2.538,2.538h-.446Zm3.068-2.741-.315-.315V49.887l.315-.315.314.315v2.284Z" transform="translate(-0.495 -1.728)"/>
    <path d="M37.756,52.516l-.315-.314V49.917l.315-.314.314.314V52.2Zm.529.2,2.14,2.139V55.3h-.446L37.84,53.164v-.445Zm2.308,2.634V53.068l.314-.314.315.314v2.285l-.315.314Zm.316-2.837L40.6,52.2V49.917l.314-.315.315.315V52.2Z" transform="translate(-0.495 -1.728)"/>
    <path d="M42.526,49.6l.315.314V52.2l-.315.314-.314-.314V49.917Zm-.314,3.465.314-.314.315.314v2.285l-.315.314-.314-.314Zm1.242-3.1L45.2,51.708v.444h-.445l-1.741-1.74v-.446Zm2.224,5.7-.315-.314V53.068l.315-.314.315.314v2.285Zm-.314-5.75.315-.314.314.314V52.2l-.314.314-.315-.314Zm.8.495v-.446h.445L48.744,52.1v.445H48.3Zm2.668,2.342.316.314v2.285l-.316.314-.314-.314V53.068Z" transform="translate(-0.495 -1.728)"/>
    <path d="M50.769,49.922v2.285l-.315.314-.314-.314V49.922l.314-.314Zm-.629,3.152.314-.315.315.315v2.284l-.315.315-.314-.315Zm.748-.748h2.284l.315.315-.315.314H50.888l-.315-.314Zm1.79-.168-1.74-1.741v-.445h.444l1.741,1.741v.445Z" transform="translate(-0.495 -1.728)"/>
    <path d="M56.273,49.669l.315.314v2.285l-.315.315-.314-.315V49.983Zm2.718.2H56.707l-.314-.315.314-.315h2.284l.316.315Zm-2.6,2.836.314-.314h2.284l.316.314-.316.315H56.707Zm.314,2.837h2.284l.316.315-.316.314H56.707l-.314-.314Zm2.718.2-.315-.315V53.135l.315-.315.314.315v2.284Z" transform="translate(-0.495 -1.728)"/>
    <path d="M61.21,52.268l-.314.315-.315-.315V49.983l.315-.314.314.314Zm-.629.867.315-.315.314.315v2.284l-.314.315-.315-.315Zm3.032-3.27H61.329l-.314-.315.314-.315h2.284l.316.315Zm-2.284,5.673h2.284l.316.315-.316.314H61.329l-.314-.314Zm2.4-3.27V49.983l.315-.314.314.314v2.285l-.314.315Zm0,.867.315-.315.314.315v2.284l-.314.315-.315-.315Z" transform="translate(-0.495 -1.728)"/>
    <path d="M.81,67.549.5,67.235v-.709l.315-.315.315.315v.709Zm0-1.575L.5,65.659V63.375l.315-.315.314.315v2.284Z" transform="translate(-0.495 -1.728)"/>
    <path d="M3.917,61.451l.314.315V64.05l-.314.315L3.6,64.05V61.766Zm.529,4.693.963.962v.445H4.964L4,66.588v-.444Zm2.189-1.975.315.315-.315.314H4.351l-.315-.314.315-.315Zm-.614-2.752.963.962v.445H6.54l-.963-.963v-.444ZM6.754,67.2V64.917l.314-.314.315.314V67.2l-.315.314Zm0-2.285.314-.314Z" transform="translate(-0.495 -1.728)"/>
    <path d="M8.688,61.553,9,61.868v2.277l-.314.314-.315-.314V61.868ZM9,65.015V67.3l-.314.315L8.373,67.3V65.015l.315-.315Zm.119,2.4h2.284l.316.315-.316.314H9.121l-.314-.314Z" transform="translate(-0.495 -1.728)"/>
    <path d="M13.337,67.3l-.257.258-.058.057-.314-.315v-2.29l.314-.315.315.315Zm2.354-5.385v.445L13.552,64.5h-.446V64.05l2.14-2.14Zm.049,5.5.316.315-.316.314H13.456l-.314-.314.314-.315Zm.119-3.262V61.861l.315-.315.315.315v2.291l-.308.307-.007-.006-.007.006Zm0,.853.308-.308.007.007.007-.007.307.308V67.3l-.314.315-.315-.315Zm.315-.552.007.006-.007.007-.007-.007Z" transform="translate(-0.495 -1.728)"/>
    <path d="M18.107,64.138l-.314.315-.314-.315V61.854l.314-.315.314.315Zm-.315.553.315.316v2.282l-.314.315-.314-.315V65.005Zm.12-.117h0l.316.316h0Zm.315,3.466-.315-.314.315-.315,2.284-.006.315.315-.315.315Zm0-3.151-.316-.316.314-.314,2.284,0,.315.314-.315.315Z" transform="translate(-0.495 -1.728)"/>
    <path d="M23.612,64.393l-.314-.314V61.794l.314-.315.315.315v2.284Zm.53.2,2.139,2.139v.445h-.445L23.7,65.041V64.6Zm2.307,2.634V64.945l.315-.314.314.314V67.23l-.314.314Zm.317-2.837-.315-.315V61.793l.315-.314.314.314v2.285Z" transform="translate(-0.495 -1.728)"/>
    <path d="M28.068,64.084V61.8l.315-.314.314.314v2.284l-.314.315Zm0,.868.315-.315.314.315v2.284l-.314.315-.315-.315Zm1.244-3.1,2.14,2.14v.445h-.445l-2.14-2.14v-.445Zm2.222,2.789.315.315v2.284l-.315.315-.314-.315V64.952Z" transform="translate(-0.495 -1.728)"/>
    <path d="M33.084,61.451l.314.315V64.05l-.314.315-.314-.315V61.766Zm.529,4.693.963.962v.445h-.445l-.963-.963v-.444ZM35.8,64.169l.315.315L35.8,64.8H33.518l-.315-.314.315-.315Zm-.614-2.752.963.962v.445h-.444l-.963-.963v-.444Zm.733,5.785V64.917l.314-.314.315.314V67.2l-.315.314Zm0-2.285.314-.314Z" transform="translate(-0.495 -1.728)"/>
    <path d="M38.169,64.143l-.315.314-.314-.314V61.858l.314-.315.315.315Zm-.315.552.315.314v2.285l-.315.314-.314-.314V65.009Zm.12-.119.314-.315h2.284l.316.315-.316.315H38.288Zm.314,3.466-.314-.314.314-.315h2.284l.316.315-.316.314Zm1.792-3.95-1.741-1.741v-.445h.445l1.741,1.741v.445Z" transform="translate(-0.495 -1.728)"/>
    <path d="M42.425,64.143l-.315.314-.314-.314V61.858l.314-.315.315.315Zm-.315.552.315.314v2.285l-.315.314-.314-.314V65.009Zm.119-.119.315-.315h2.284l.316.315-.316.315H42.544Zm.315,3.466-.315-.314.315-.315h2.284l.316.315-.316.314Zm1.792-3.95L42.6,62.351v-.445h.445l1.741,1.741v.445Z" transform="translate(-0.495 -1.728)"/>
    <path d="M46.052,64.084V61.8l.314-.314.315.314v2.284l-.315.315Zm0,.868.314-.315.315.315v2.284l-.315.315-.314-.315Zm1.244-3.1,2.14,2.14v.445H48.99l-2.139-2.14v-.445Zm2.222,2.789.314.315v2.284l-.314.315-.315-.315V64.952Z" transform="translate(-0.495 -1.728)"/>
    <path d="M55.221,61.427l-.316.315H52.621l-.314-.315.314-.315h2.284Zm0,3.151-.316.315H52.621l-.314-.315.314-.314h2.284Zm-2.6,2.837h2.284l.316.314-.316.315H52.621l-.314-.315Zm2.718-2.956-.315-.314V61.86l.171-.171.144-.143.315.314v2.285Zm.315,2.837-.315.315-.315-.315V65.012l.171-.171.144-.144.315.315Z" transform="translate(-0.495 -1.728)"/>
    <path d="M57.271,61.764v2.285l-.315.314-.314-.314V61.764l.314-.314ZM56.956,64.6l.315.315V67.2l-.315.315-.314-.315V64.916Zm.434-.434h2.284l.315.315-.315.315H57.39l-.315-.315ZM59.18,64l-1.741-1.742v-.445h.445l1.741,1.741V64Zm-1.741,1.41v-.445h.445L60.023,67.1v.445h-.444Z" transform="translate(-0.495 -1.728)"/>
    <path d="M1.124,73.678v2.284l-.314.315L.5,75.962V73.678l.315-.315Zm2.4,2.4.316.315-.316.314H1.243L.929,76.4l.314-.315Zm.434.2-.315-.315V73.678l.315-.315.314.315v2.284Zm-.315.552.315-.314.314.314v2.285l-.314.314-.315-.314Z" transform="translate(-0.495 -1.728)"/>
    <path d="M5.58,73.43l.315.315v2.276l-.315.315-.314-.315V73.745ZM5.9,76.892v2.284l-.315.315-.314-.315V76.892l.314-.315Zm.119,2.4H8.3l.315.315-.315.314H6.014L5.7,79.61Z" transform="translate(-0.495 -1.728)"/>
    <path d="M11.085,79.607l.314-.315h2.285l.315.315-.315.314H11.4Zm2.948-2.623-2.139,2.14h-.445v-.445l2.14-2.139h.444Z" transform="translate(-0.495 -1.728)"/>
    <path d="M15.024,75.21l.315-.314.314.314V77.5l-.314.315-.315-.315Zm.844-.517h-.445v-.445l.963-.962h.445v.444Zm.518,4.733-.963-.963v-.444h.445l.963.962v.445Z" transform="translate(-0.495 -1.728)"/>
    <path d="M18.14,73.43l.314.315v2.276l-.314.315-.315-.315V73.745Zm.314,3.462v2.284l-.314.315-.315-.315V76.892l.315-.315Zm.119,2.4h2.284l.316.315-.316.314H18.573l-.314-.314Z" transform="translate(-0.495 -1.728)"/>
    <path d="M23.567,74.248v.445h-.444l-.963-.963v-.444h.445Zm-.444,3.771h.444v.444l-.962.963H22.16v-.445Zm.529-3.123.315.314V77.5l-.315.315-.315-.315V75.21Z" transform="translate(-0.495 -1.728)"/>
    <path d="M29.044,79.292l.315.315-.315.314H26.76l-.315-.314.315-.315Z" transform="translate(-0.495 -1.728)"/>
    <path d="M32.942,78.681v.443H32.5l-2.142-2.142v-.444H30.8Zm-2.238.611h1.723v0h.562l.313.313-.315.314H30.7l-.314-.314Zm1.724,0v0h.561l0,0Z" transform="translate(-0.495 -1.728)"/>
    <path d="M36.093,73.423l.314.314v2.284l-.314.315-.315-.315V73.737Zm2.718.2H36.526l-.314-.315.314-.315h2.285l.315.315Zm-2.6,2.836.314-.314h2.285l.315.314-.315.315H36.526Zm.314,2.837h2.285l.315.314-.315.315H36.526l-.314-.315Zm2.718.2-.314-.315V76.889l.314-.315.315.315v2.284Z" transform="translate(-0.495 -1.728)"/>
    <path d="M41.178,73.641v2.285l-.315.314-.314-.314V73.641l.314-.314Zm-.315,2.837.315.314v2.285l-.315.315-.314-.315V76.792Zm.434-.434h2.284l.315.315-.315.315H41.3l-.315-.315Zm1.79-.168-1.74-1.741V73.69h.444l1.741,1.741v.445Zm-1.74,1.411v-.445h.444l2.14,2.139v.445h-.445Z" transform="translate(-0.495 -1.728)"/>
    <path d="M.81,85.3l.314.315V87.9l-.314.315L.5,87.9V85.614Zm2.717.2H1.243L.929,85.18l.314-.314H3.527l.316.314Zm-2.6,2.837.314-.315H3.527l.316.315-.316.314H1.243Zm.314,2.836H3.527l.316.315-.316.315H1.243l-.314-.315Zm2.718.2-.315-.315V88.765l.315-.314.314.314v2.284Z" transform="translate(-0.495 -1.728)"/>
    <path d="M5.746,87.9l-.314.315L5.117,87.9V85.614l.315-.315.314.315Zm-.629.867.315-.314.314.314V91.05l-.314.314-.315-.314ZM8.149,85.5H5.865l-.314-.315.314-.314H8.149l.316.314ZM5.865,91.168H8.149l.316.315-.316.315H5.865l-.314-.315Zm2.4-3.27V85.614l.314-.315.314.315V87.9l-.314.315Zm0,.867.314-.314.314.314V91.05l-.314.314-.314-.314Z" transform="translate(-0.495 -1.728)"/>
    <path d="M12,87.9l-.314.315-.315-.315V85.617l.315-.315.314.315Zm-.629.867.315-.314.314.314v2.285l-.314.314-.315-.314ZM14.4,85.5H12.12l-.314-.315.314-.314H14.4l.316.314Zm-2.6,2.836.314-.314H14.4l.316.314-.316.315H12.12Zm.314,2.837H14.4l.316.315L14.4,91.8H12.12l-.314-.315Zm2.4-.118V88.768l.315-.314.314.314v2.285l-.314.314Z" transform="translate(-0.495 -1.728)"/>
    <path d="M16.771,85.518V87.8l-.314.315-.314-.315V85.518l.314-.315Zm-.314,2.836.314.315v2.285l-.314.314-.314-.314V88.669Zm.434-.433h2.284l.315.314-.315.315H16.891l-.315-.315Zm1.79-.168L16.94,86.012v-.445h.445l1.741,1.741v.445ZM16.94,89.164v-.446h.445l2.139,2.14V91.3H19.08Z" transform="translate(-0.495 -1.728)"/>
    <path d="M22.631,87.839l-.315.314L22,87.839V85.554l.314-.314.315.314ZM22,88.706l.314-.315.315.315V90.99l-.315.315L22,90.99Z" transform="translate(-0.495 -1.728)"/>
    <path d="M23.83,85.3l.315.315V87.9l-.315.315-.314-.315V85.614Zm2.718.2H24.264l-.315-.315.315-.314h2.284l.315.314Zm-2.6,2.837.315-.315h2.284l.315.315-.315.314H24.264Zm.315,2.836h2.284l.315.315-.315.315H24.264l-.315-.315Zm2.717.2-.314-.315V88.765l.314-.314.315.314v2.284Z" transform="translate(-0.495 -1.728)"/>
    <path d="M28.767,87.9l-.315.315-.314-.315V85.614l.314-.315.315.315Zm-.629.867.314-.314.315.314V91.05l-.315.314-.314-.314ZM31.17,85.5H28.886l-.315-.315.315-.314H31.17l.315.314Zm-2.284,5.673H31.17l.315.315-.315.315H28.886l-.315-.315Zm2.4-3.27V85.614L31.6,85.3l.314.315V87.9l-.314.315Zm0,.867.315-.314.314.314V91.05l-.314.314-.315-.314Z" transform="translate(-0.495 -1.728)"/>
    <path d="M1.124,97.431v2.285l-.314.314L.5,99.716V97.431l.315-.314Zm2.4,2.4.316.315-.316.315H1.243l-.314-.315.314-.315Zm.434.2-.315-.314V97.431l.315-.314.314.314v2.285Zm-.315.553.315-.315.314.315v2.284l-.314.315-.315-.315Z" transform="translate(-0.495 -1.728)"/>
    <path d="M5.9,97.4v2.284l-.315.315-.314-.315V97.4l.314-.315Zm-.315,2.836.315.315v2.285l-.315.314-.314-.314v-2.285Zm.434-.433H8.3l.315.314-.315.315H6.014l-.315-.315ZM7.8,99.63,6.063,97.889v-.445h.445l1.741,1.741v.445Zm-1.741,1.411V100.6h.445l2.139,2.14v.445H8.2Z" transform="translate(-0.495 -1.728)"/>
    <path d="M9.581,98.964l.315-.315.314.315v2.29l-.314.315-.315-.315Zm.844-.518H9.979V98l.963-.962h.446v.445Zm.517,4.734-.963-.963v-.445h.446l.963.963v.445Z" transform="translate(-0.495 -1.728)"/>
    <path d="M12.7,97.184l.315.315v2.276l-.315.315-.314-.315V97.5Zm.315,3.461v2.285l-.315.314-.314-.314v-2.285l.314-.314Zm.119,2.4h2.284l.315.315-.315.315H13.13l-.315-.315Z" transform="translate(-0.495 -1.728)"/>
    <path d="M18.124,98v.445H17.68l-.963-.962v-.445h.445Zm-.444,3.771h.444v.445l-.962.963h-.445v-.445Zm.529-3.123.314.315v2.29l-.314.315-.315-.315v-2.29Z" transform="translate(-0.495 -1.728)"/>
    <path d="M21,103.36l.314-.315H23.6l.315.315-.315.315H21.316Zm2.948-2.622-2.139,2.139h-.445v-.444l2.14-2.14h.444Z" transform="translate(-0.495 -1.728)"/>
    <path d="M26.426,100.579l.314-.314.315.314v2.286l-.315.315-.314-.315Zm.844-.517h-.446v-.445l2.539-2.539h.445v.445Z" transform="translate(-0.495 -1.728)"/>
    <path d="M32.729,100.229l2.14,2.143v.444h-.445l-2.14-2.142v-.445Zm2.623-.2-.315-.315V97.43l.315-.315.314.315v2.284Zm-.315.552.315-.314.314.314v2.285l-.314.314-.315-.314Z" transform="translate(-0.495 -1.728)"/>
    <path d="M36.974,100.023l-.315-.314V97.424l.315-.314.314.314v2.284Zm.529.2,2.14,2.14v.445H39.2l-2.139-2.14v-.445Zm2.308,2.634v-2.284l.314-.315.314.315v2.284l-.314.315Zm.316-2.837-.315-.315V97.424l.315-.315.314.315v2.284Z" transform="translate(-0.495 -1.728)"/>
    <path d="M41.744,97.11l.315.314v2.285l-.315.314-.314-.314V97.425Zm-.314,3.466.314-.315.315.315v2.284l-.315.315-.314-.315Zm1.242-3.1,1.742,1.741v.445h-.445l-1.741-1.741v-.445Zm2.224,5.7-.315-.315v-2.284l.315-.315.315.315v2.284Zm-.314-5.751.314-.314.315.314v2.285l-.315.314-.314-.314Zm.8.495v-.445h.445l2.138,2.138v.445h-.445Zm2.668,2.342.315.315v2.284l-.315.315-.315-.315v-2.284Z" transform="translate(-0.495 -1.728)"/>
    <path d="M49.986,97.43v2.284l-.314.315-.315-.315V97.43l.315-.315Zm-.629,3.151.315-.314.314.314v2.285l-.314.314-.315-.314Zm.748-.748H52.39l.315.315-.315.314H50.105l-.314-.314Zm1.791-.168-1.741-1.741v-.445H50.6l1.741,1.741v.445Z" transform="translate(-0.495 -1.728)"/>
    <path d="M3.094,114.922l.315.315-.315.315H.81L.5,115.237l.315-.315Z" transform="translate(-0.495 -1.728)"/>
    <path d="M6.992,114.311v.443H6.546L4.4,112.613v-.445H4.85Zm-2.238.611H6.477v0H7.04l.313.313-.315.315H4.754l-.315-.315Zm1.724,0v0h.561l0,0Z" transform="translate(-0.495 -1.728)"/>
    <path d="M10.457,111.655l-.314.315-.315-.315v-2.284l.315-.315.314.315Zm-.629.867.315-.314.314.314v2.285l-.314.314-.315-.314Zm3.032-3.27H10.576l-.314-.315.314-.314H12.86l.316.314Zm-2.6,2.836.314-.314H12.86l.316.314-.316.315H10.576Zm.314,2.837H12.86l.316.315-.316.315H10.576l-.314-.315Zm2.4-.118v-2.285l.315-.314.314.314v2.285l-.314.314Z" transform="translate(-0.495 -1.728)"/>
    <path d="M15.228,109.271v2.285l-.315.315-.314-.315v-2.285l.314-.314Zm-.315,2.837.315.315v2.285l-.315.314-.314-.314v-2.285Zm.434-.433h2.284l.315.314-.315.315H15.347l-.315-.315Zm1.79-.168L15.4,109.766v-.445h.445l1.741,1.741v.445Zm-1.741,1.41v-.445h.445l2.139,2.14v.445h-.444Z" transform="translate(-0.495 -1.728)"/>
    <path d="M20.458,112.456l.314-.314.315.314v2.286l-.315.315-.314-.315Zm.844-.518h-.446v-.444l2.54-2.539h.444v.445Z" transform="translate(-0.495 -1.728)"/>
    <path d="M26.945,111.65l-.314.314-.315-.314v-2.284l.315-.315.314.315Zm-.629.867.315-.315.314.315V114.8l-.314.315-.315-.315Zm.748,2.4h2.285l.315.315-.315.314H27.064l-.314-.314Zm.05-5.06v-.445h.445l2.139,2.139V112h-.445Zm2.668,5.256-.314-.315v-2.284l.314-.315.315.315V114.8Z" transform="translate(-0.495 -1.728)"/>
    <path d="M33.909,113.6l-.314.315h-.709l-.315-.315.315-.315H33.6Zm.119-.119-.314-.315v-.708l.314-.315.315.315v.708Zm.144.381.171.171v.709l-.315.315-.314-.315v-.709l.171-.171.143-.143Zm-.026-.262.316-.315h.71l.314.315-.314.315h-.71l-.229-.229Z" transform="translate(-0.495 -1.728)"/>
    <path d="M38.28,111.875l-.314-.314v-2.285l.314-.315.315.315v2.285Zm.084.648v-.445h.446l2.538,2.539v.445H40.9Zm2.949-3.68-.315.314H38.714l-.315-.314.315-.315H41Z" transform="translate(-0.495 -1.728)"/>
    <path d="M44.139,115.057l-.315-.315v-.709l.315-.314.315.314v.709Zm0-1.576-.315-.315v-2.284l.315-.315.314.315v2.284Z" transform="translate(-0.495 -1.728)"/>
    <path d="M47.562,109.308v2.285l-.315.314-.314-.314v-2.285l.314-.314Zm2.4,2.4.315.315-.315.315H47.681l-.315-.315.315-.315Zm.433.2-.314-.314v-2.285l.314-.314.315.314v2.285Zm-.314.552.314-.314.315.314v2.285l-.315.315-.314-.315Z" transform="translate(-0.495 -1.728)"/>
    <path d="M52.018,109.061l.314.314v2.277l-.314.315-.315-.315v-2.277Zm.314,3.461v2.285l-.314.314-.315-.314v-2.285l.315-.314Zm.119,2.4h2.284l.316.315-.316.315H52.451l-.314-.315Z" transform="translate(-0.495 -1.728)"/>
    <path d="M57.522,112.456l.315-.314.314.314v2.286l-.314.315-.315-.315Zm.844-.518h-.445v-.444l2.539-2.539H60.9v.445Z" transform="translate(-0.495 -1.728)"/>
    <path d="M63.7,111.875l-.314-.314v-2.285l.314-.315.315.315v2.285Zm.084.648v-.445h.446l2.538,2.539v.445h-.445Zm2.95-3.68-.316.314H64.129l-.315-.314.315-.315h2.284Z" transform="translate(-0.495 -1.728)"/>
    <path d="M.5,127.114.81,126.8H3.094l.315.315-.315.315H.81Zm2.948-2.622L1.3,126.631H.859v-.444L3,124.047h.444Z" transform="translate(-0.495 -1.728)"/>
    <path d="M6.548,121.185v2.285l-.315.314-.314-.314v-2.285l.314-.314Zm2.4,2.4.316.315-.316.315H6.667l-.314-.315.314-.315Zm.434.2-.315-.314v-2.285l.315-.314.314.314v2.285Zm-.315.552.315-.314.314.314v2.285l-.314.315-.315-.315Z" transform="translate(-0.495 -1.728)"/>
    <path d="M11.259,123.529l-.315.315-.314-.315v-2.284l.314-.315.315.315Zm-.629.867.314-.314.315.314v2.285l-.315.314-.314-.314Zm3.032-3.27H11.378l-.315-.315.315-.314h2.284l.316.314ZM11.378,126.8h2.284l.316.315-.316.315H11.378l-.315-.315Zm2.4-3.27v-2.284l.315-.315.314.315v2.284l-.314.315Zm0,.867.315-.314.314.314v2.285L14.1,127l-.315-.314Z" transform="translate(-0.495 -1.728)"/>
    <path d="M1.124,133.062v2.285l-.314.314L.5,135.347v-2.285l.315-.314Zm2.4,2.4.316.315-.316.315H1.243l-.314-.315.314-.315Zm.434.2-.315-.314v-2.285l.315-.314.314.314v2.285Zm-.315.552.315-.314.314.314V138.5l-.314.314-.315-.314Z" transform="translate(-0.495 -1.728)"/>
    <path d="M5.58,132.814l.315.315v2.277l-.315.315-.314-.315v-2.277Zm.315,3.462v2.285l-.315.314-.314-.314v-2.285l.314-.315Zm.119,2.4H8.3l.315.315-.315.315H6.014l-.315-.315Z" transform="translate(-0.495 -1.728)"/>
    <path d="M11.085,138.991l.314-.315h2.285l.315.315-.315.315H11.4Zm2.948-2.622-2.139,2.139h-.445v-.445l2.14-2.139h.444Z" transform="translate(-0.495 -1.728)"/>
    <path d="M17.138,135.409l-.315.315-.314-.315v-2.284l.314-.315.315.315Zm-.629.867.314-.315.315.315v2.285l-.315.314-.314-.314Zm3.032-3.27H17.257l-.315-.315.315-.315h2.284l.315.315Zm-2.6,2.836.315-.314h2.284l.315.314-.315.315H17.257Zm.315,2.837h2.284l.315.315-.315.315H17.257l-.315-.315Zm2.4-.118v-2.285l.315-.315.314.315v2.285l-.314.314Z" transform="translate(-0.495 -1.728)"/>
    <path d="M25.362,138.676l.316.315-.316.315H23.078l-.314-.315.314-.315Z" transform="translate(-0.495 -1.728)"/>
    <path d="M29.261,138.065v.443h-.447l-2.141-2.141v-.445h.445Zm-2.239.611h1.723v0h.563l.312.313-.314.315H27.022l-.314-.315Zm1.724,0v0h.562l0,0Z" transform="translate(-0.495 -1.728)"/>
    <path d="M32.411,132.708l.315.315v2.282l-.315.315-.314-.315v-2.282Zm0,3.152.315.315v2.284l-.315.315-.314-.315v-2.284Zm.434.193-.315-.315.09-.089.225-.226h2.284l.315.315-.315.315Zm.05.616v-.445h.444l2.14,2.139v.446h-.446Z" transform="translate(-0.495 -1.728)"/>
    <path d="M37.1,135.4l-.315.314-.314-.314V133.12l.314-.315.315.315Zm-.315.552.315.315v2.284l-.315.315-.314-.315v-2.284Zm.119-.119.315-.315H39.5l.315.315-.315.315H37.22Zm.315,3.466-.315-.314.315-.315H39.5l.315.315-.315.314Zm1.792-3.95-1.741-1.741v-.445h.445l1.741,1.741v.445Z" transform="translate(-0.495 -1.728)"/>
    <path d="M41.355,135.4l-.314.314-.314-.314V133.12l.314-.315.314.315Zm-.314.552.314.315v2.284l-.314.315-.314-.315v-2.284Zm.119-.119.315-.315h2.284l.315.315-.315.315H41.475Zm.315,3.466-.315-.314.315-.315h2.284l.315.315-.315.314Zm1.792-3.95-1.742-1.741v-.445h.446l1.741,1.741v.445Z" transform="translate(-0.495 -1.728)"/>
    <path d="M45.69,133.061v2.284l-.314.315-.314-.315v-2.284l.314-.315Zm-.628,3.151.314-.315.314.315V138.5l-.314.314-.314-.314Zm.748-.748h2.284l.315.315-.315.314H45.81l-.315-.314Zm1.79-.168-1.741-1.741v-.445H46.3l1.741,1.741v.445Z" transform="translate(-0.495 -1.728)"/>
    <path d="M49.937,133.025v2.285l-.315.315-.314-.315v-2.285l.314-.314Zm-.315,2.837.315.315v2.284l-.315.315-.314-.315v-2.284Zm.434-.433H52.34l.315.314-.315.315H50.056l-.315-.315Zm1.79-.168-1.741-1.741v-.445h.445l1.741,1.74v.446Zm-1.741,1.41v-.445h.445l2.139,2.14v.445h-.444Z" transform="translate(-0.495 -1.728)"/>
    <path d="M55.167,136.21l.314-.314.315.314V138.5l-.315.315-.314-.315Zm.844-.518h-.446v-.444l2.539-2.539h.445v.445Z" transform="translate(-0.495 -1.728)"/>
    <path d="M61.472,135.859,63.611,138v.445h-.445l-2.14-2.142v-.446Zm2.622-.2-.315-.315v-2.284l.315-.315.314.315v2.284Zm-.315.552.315-.315.314.315V138.5l-.314.314-.315-.314Z" transform="translate(-0.495 -1.728)"/>
    <path d="M65.715,135.654l-.315-.314v-2.285l.315-.314.314.314v2.284Zm.529.2,2.14,2.14v.445h-.446L65.8,136.3v-.445Zm2.308,2.634v-2.284l.314-.315.315.315v2.284l-.315.315Zm.316-2.837-.314-.315v-2.284l.314-.315.315.315v2.284Z" transform="translate(-0.495 -1.728)"/>
    <path d="M70.485,132.741l.315.314v2.285l-.315.314-.314-.314v-2.284Zm-.314,3.466.314-.315.315.315v2.284l-.315.315-.314-.315Zm1.242-3.1,1.742,1.742v.445H72.71l-1.741-1.741V133.1Zm2.224,5.7-.315-.315v-2.284l.315-.315.315.315v2.284Zm-.314-5.751.315-.314.314.314v2.285l-.314.314-.315-.314Zm.8.5V133.1h.445l2.138,2.139v.445h-.445Zm2.668,2.342.316.315v2.284l-.316.315-.314-.315v-2.284Z" transform="translate(-0.495 -1.728)"/>
    <path d="M78.728,133.061v2.284l-.315.315-.314-.315v-2.284l.314-.315Zm-.629,3.151.314-.315.315.315V138.5l-.315.314L78.1,138.5Zm.748-.748h2.284l.315.315-.315.314H78.847l-.315-.314Zm1.79-.168L78.9,133.555v-.445h.445l1.741,1.741v.445Z" transform="translate(-0.495 -1.728)"/>
    <path d="M3.094,150.553l.315.315-.315.314H.81L.5,150.868l.315-.315Z" transform="translate(-0.495 -1.728)"/>
    <path d="M6.992,149.941v.444H6.546L4.4,148.243V147.8H4.85Zm-2.238.612H6.477v0H7.04l.313.313-.315.314H4.754l-.315-.314Zm1.724,0v0h.561l0,0Z" transform="translate(-0.495 -1.728)"/>
    <path d="M10.143,144.585l.314.315v2.281l-.314.315-.315-.315V144.9Zm0,3.152.314.314v2.284l-.314.315-.315-.315v-2.284Zm.433.192-.314-.314.09-.09.224-.225H12.86l.316.315-.316.314Zm.05.616V148.1h.444l2.14,2.139v.445h-.445Z" transform="translate(-0.495 -1.728)"/>
    <path d="M14.831,147.28l-.314.315-.315-.315V145l.315-.315.314.315Zm-.314.553.314.314v2.285l-.314.314-.315-.314v-2.285Zm.119-.119.314-.315h2.284l.316.315-.316.314H14.95Zm.314,3.466-.314-.315.314-.315h2.284l.316.315-.316.315Zm1.792-3.951L15,145.489v-.446h.445l1.742,1.742v.444Z" transform="translate(-0.495 -1.728)"/>
    <path d="M19.087,147.28l-.315.315-.314-.315V145l.314-.315.315.315Zm-.315.553.315.314v2.285l-.315.314-.314-.314v-2.285Zm.12-.119.314-.315H21.49l.316.315-.316.314H19.206Zm.314,3.466-.314-.315.314-.315H21.49l.316.315-.316.315ZM21,147.229l-1.741-1.74v-.446H19.7l1.741,1.742v.444Z" transform="translate(-0.495 -1.728)"/>
    <path d="M23.422,144.937v2.285l-.315.314-.314-.314v-2.285l.314-.314Zm-.629,3.151.314-.314.315.314v2.285l-.315.315-.314-.315Zm.748-.748h2.284l.316.315-.316.315H23.541l-.314-.315Zm1.79-.168-1.74-1.741v-.445h.444l1.741,1.742v.444Z" transform="translate(-0.495 -1.728)"/>
    <path d="M27.668,144.9v2.285l-.314.314-.315-.314V144.9l.315-.315Zm-.314,2.837.314.314v2.285l-.314.314-.315-.314v-2.285Zm.433-.434h2.284l.316.315-.316.315H27.787l-.314-.315Zm1.79-.168-1.74-1.741v-.445h.444l1.741,1.741v.445Zm-1.74,1.411V148.1h.444l2.14,2.139v.445h-.444Z" transform="translate(-0.495 -1.728)"/>
    <path d="M32.9,148.086l.315-.314.314.314v2.287l-.314.314-.315-.314Zm.844-.517H33.3v-.445l2.539-2.539h.444v.446Z" transform="translate(-0.495 -1.728)"/>
    <path d="M39.072,147.506l-.314-.315v-2.284l.314-.315.315.315v2.284Zm.084.648v-.446H39.6l2.538,2.539v.445H41.7Zm2.949-3.681-.315.315H39.506l-.315-.315.315-.314H41.79Z" transform="translate(-0.495 -1.728)"/>
    <path d="M47.53,144.564l-.315.315H44.931l-.315-.315.315-.314h2.284Zm0,3.152-.315.315H44.931l-.315-.315.315-.315h2.284Zm-2.6,2.837h2.284l.315.314-.315.315H44.931l-.315-.315Zm2.717-2.956-.314-.315V145l.171-.171.143-.143.316.314v2.284Zm.316,2.837-.316.315-.314-.315v-2.285l.171-.17.143-.144.316.314Z" transform="translate(-0.495 -1.728)"/>
    <path d="M49.491,147.283l-.314.314-.315-.314V145l.315-.314.314.314Zm-.629.866.315-.314.314.314v2.285l-.314.315-.315-.315Zm3.033-3.27H49.61l-.314-.314.314-.315H51.9l.315.315Zm-2.285,5.674H51.9l.315.315-.315.314H49.61l-.314-.314Zm2.4-3.27V145l.314-.314.315.314v2.285l-.315.314Zm0,.866.314-.314.315.314v2.285l-.315.315-.314-.315Z" transform="translate(-0.495 -1.728)"/>
    <path d="M.5,159.965l.315-.314.314.314v2.285l-.314.314L.5,162.25Zm3.348-.433-.316.315H1.243l-.314-.315.314-.315H3.527Zm-.41-3.069h.444v.445l-2.141,2.14H1.292V158.6Zm.213,5.787v-2.285l.315-.314.315.314v2.285l-.315.314Z" transform="translate(-0.495 -1.728)"/>
    <path d="M5.9,162.31l-.257.257-.058.058-.314-.315v-2.29l.314-.315.315.315Zm2.354-5.385v.445l-2.14,2.14H5.664v-.446l2.14-2.139Zm.049,5.5.315.315-.315.314H6.014l-.315-.314.315-.315Zm.119-3.262v-2.291l.314-.315.316.315v2.291l-.309.307-.007-.007-.006.007Zm0,.853.308-.308.006.007.007-.007.308.308v2.29l-.315.315-.314-.315Zm.314-.553.007.007-.007.007-.006-.007Z" transform="translate(-0.495 -1.728)"/>
    <path d="M10.665,162.31l-.257.257-.057.058-.315-.315v-2.29l.315-.315.314.315Zm2.355-5.385v.445l-2.14,2.14h-.445v-.446l2.139-2.139Zm.048,5.5.316.315-.316.314H10.784l-.314-.314.314-.315Zm.12-3.262v-2.291l.314-.315.315.315v2.291l-.308.307-.007-.007-.007.007Zm0,.853.307-.308.007.007.007-.007.307.308v2.29l-.314.315-.314-.315Zm.314-.553.007.007-.007.007-.007-.007Z" transform="translate(-0.495 -1.728)"/>
    <path d="M15.121,156.462l.315.315v2.281l-.315.315-.314-.315v-2.281Zm0,3.152.315.314v2.284l-.315.315-.314-.315v-2.284Zm.434.192-.315-.314.09-.09.225-.225h2.284l.315.315-.315.314Zm.049.616v-.444h.445l2.139,2.139v.445h-.445Z" transform="translate(-0.495 -1.728)"/>
    <path d="M20.98,156.561l.315.314v2.284l-.315.315-.314-.315v-2.284Zm2.718.195H21.414l-.314-.315.314-.314H23.7l.316.314Zm-2.6,2.837.314-.315H23.7l.316.315-.316.315H21.414Zm.314,2.837H23.7l.316.314-.316.315H21.414l-.314-.315Zm2.718.195-.315-.314v-2.285l.315-.314.314.314v2.285Z" transform="translate(-0.495 -1.728)"/>
    <path d="M25.751,156.568l.314.315v2.276l-.314.315-.314-.315v-2.276Zm.314,3.461v2.285l-.314.314-.314-.314v-2.285l.314-.314Zm.12,2.4h2.284l.315.315-.315.314H26.185l-.315-.314Z" transform="translate(-0.495 -1.728)"/>
    <path d="M31.885,159.163l-.315.314-.314-.314v-2.285l.314-.315.315.315Zm-.629.866.314-.314.315.314v2.285l-.315.314-.314-.314Zm3.032-3.27H32l-.315-.315L32,156.13h2.284l.316.314Zm-2.6,2.837.315-.315h2.284l.316.315-.316.315H32ZM32,162.433h2.284l.316.315-.316.314H32l-.315-.314Zm2.4-.119v-2.285l.315-.314.314.314v2.285l-.314.314Z" transform="translate(-0.495 -1.728)"/>
    <path d="M36.507,159.16l-.315.314-.314-.314v-2.285l.314-.314.315.314Zm-.629.866.314-.314.315.314v2.285l-.315.314-.314-.314Zm3.032-3.27H36.626l-.314-.314.314-.315H38.91l.316.315Zm-2.284,5.674H38.91l.316.315-.316.314H36.626l-.314-.314Zm2.4-3.27v-2.285l.315-.314.314.314v2.285l-.314.314Zm0,.866.315-.314.314.314v2.285l-.314.314-.315-.314Z" transform="translate(-0.495 -1.728)"/>
    <path d="M1.124,171.04l-.314.314L.5,171.04v-2.285l.315-.315.314.315Zm-.629.866.315-.314.314.314v2.285l-.314.314L.5,174.191Zm3.032-3.27H1.243l-.314-.315.314-.314H3.527l.316.314Zm-2.6,2.837.314-.315H3.527l.316.315-.316.315H1.243Zm.314,2.837H3.527l.316.315-.316.314H1.243l-.314-.314Zm2.4-.119v-2.285l.315-.314.314.314v2.285l-.314.314Z" transform="translate(-0.495 -1.728)"/>
    <path d="M5.9,168.656v2.284l-.315.315-.314-.315v-2.284l.314-.315Zm-.315,2.837.315.314v2.285l-.315.314-.314-.314v-2.285Zm.434-.434H8.3l.315.315-.315.314H6.014l-.315-.314Zm1.79-.168L6.063,169.15v-.445h.445l1.741,1.741v.445ZM6.063,172.3v-.446h.445L8.647,174v.445H8.2Z" transform="translate(-0.495 -1.728)"/>
    <path d="M12.463,172.984l-.315.315h-.709l-.314-.315.314-.315h.709Zm.119-.119-.314-.315v-.708l.314-.315.314.315v.708Zm.144.382.17.17v.709l-.314.315-.314-.315v-.709l.17-.17.144-.144Zm-.025-.263.315-.315h.71l.314.315-.314.315h-.71l-.229-.229Z" transform="translate(-0.495 -1.728)"/>
    <path d="M15.663,171.04l-.314.314-.315-.314v-2.285l.315-.315.314.315Zm-.629.866.315-.314.314.314v2.285l-.314.314-.315-.314Zm3.032-3.27H15.782l-.314-.315.314-.314h2.284l.316.314Zm-2.6,2.837.314-.315h2.284l.316.315-.316.315H15.782Zm.314,2.837h2.284l.316.315-.316.314H15.782l-.314-.314Zm2.4-.119v-2.285l.314-.314.314.314v2.285l-.314.314Z" transform="translate(-0.495 -1.728)"/>
    <path d="M20.119,168.445l.315.315v2.276l-.315.315-.314-.315V168.76Zm.315,3.461v2.285l-.315.314-.314-.314v-2.285l.314-.314Zm.119,2.4h2.284l.315.315-.315.314H20.553l-.315-.314Z" transform="translate(-0.495 -1.728)"/>
    <path d="M25.478,172.984l-.315.315h-.709l-.314-.315.314-.315h.709Zm.119-.119-.315-.315v-.708l.315-.315.314.315v.708Zm.143.382.171.17v.709l-.314.315-.315-.315v-.709l.171-.17.144-.144Zm-.025-.263.315-.315h.71l.315.315-.315.315h-.71l-.228-.229Z" transform="translate(-0.495 -1.728)"/>
    <path d="M32.447,168.318l-.315.315H29.848l-.315-.315.315-.314h2.284Zm0,3.152-.315.315H29.848l-.315-.315.315-.315h2.284Zm-2.6,2.837h2.284l.315.314-.315.315H29.848l-.315-.315Zm2.717-2.956-.314-.315v-2.284l.171-.171.143-.143.316.314v2.284Zm.316,2.837-.316.314-.314-.314V171.9l.171-.171.143-.143.316.314Z" transform="translate(-0.495 -1.728)"/>
    <path d="M34.5,168.656v2.284l-.314.315-.315-.315v-2.284l.315-.315Zm-.314,2.837.314.314v2.285l-.314.314-.315-.314v-2.285Zm.433-.434H36.9l.316.315-.316.314H34.616l-.314-.314Zm1.79-.168-1.74-1.741v-.445h.444l1.742,1.741v.445Zm-1.74,1.411v-.446h.444L37.25,174v.445h-.444Z" transform="translate(-0.495 -1.728)"/>
    <path d="M42.315,173.7v.444h-.446L39.728,172v-.445h.445Zm-2.238.612H41.8v0h.562l.313.313-.315.314H40.077l-.314-.314Zm1.724,0v0h.561l0,0Z" transform="translate(-0.495 -1.728)"/>
    <path d="M3.094,186.184l.315.315-.315.314H.81L.5,186.5l.315-.315Z" transform="translate(-0.495 -1.728)"/>
    <path d="M6.992,185.572v.444H6.546L4.4,183.874v-.445H4.85Zm-2.238.612H6.477v0H7.04l.313.313-.315.314H4.754l-.315-.314Zm1.724,0v0h.561l0,0Z" transform="translate(-0.495 -1.728)"/>
    <path d="M10.457,180.569v2.285l-.314.314-.315-.314v-2.285l.315-.314Zm2.4,2.4.316.315-.316.314H10.576l-.314-.314.314-.315Zm.434.195-.315-.314v-2.285l.315-.314.314.314v2.285Zm-.315.553.315-.315.314.315v2.284l-.314.315-.315-.315Z" transform="translate(-0.495 -1.728)"/>
    <path d="M14.913,180.322l.315.315v2.276l-.315.315-.314-.315v-2.276Zm.315,3.461v2.285l-.315.314-.314-.314v-2.285l.314-.314Zm.119,2.4h2.284l.315.314-.315.315H15.347l-.315-.315Z" transform="translate(-0.495 -1.728)"/>
    <path d="M20.418,183.717l.314-.314.315.314V186l-.315.315L20.418,186Zm.844-.517h-.446v-.445l2.539-2.539H23.8v.446Z" transform="translate(-0.495 -1.728)"/>
    <path d="M26.592,183.137l-.315-.315v-2.284l.315-.315.314.315v2.284Zm.084.648v-.446h.445l2.538,2.539v.445h-.444Zm2.949-3.681-.315.314H27.025l-.314-.314.314-.314H29.31Z" transform="translate(-0.495 -1.728)"/>
    <path d="M32.136,186.5l.314-.315h2.284l.316.315-.316.314H32.45Zm2.948-2.623-2.14,2.14H32.5v-.445l2.14-2.14h.444Z" transform="translate(-0.495 -1.728)"/>
    <path d="M40.474,180.2l-.316.315H37.874l-.314-.315.314-.314h2.284Zm0,3.152-.316.315H37.874l-.314-.315.314-.315h2.284Zm-2.6,2.837h2.284l.316.314-.316.315H37.874l-.314-.315Zm2.718-2.956-.315-.315v-2.284l.171-.171.144-.144.315.315v2.284Zm.315,2.836-.315.315-.315-.315V183.78l.171-.171.144-.143.315.314Z" transform="translate(-0.495 -1.728)"/>
    <path d="M42.435,182.914l-.315.314-.314-.314v-2.285l.314-.315.315.315Zm-.629.866.314-.314.315.314v2.285l-.315.314-.314-.314Zm3.032-3.27H42.554l-.315-.314.315-.315h2.284l.315.315Zm-2.284,5.674h2.284l.315.315-.315.314H42.554l-.315-.314Zm2.4-3.27v-2.285l.314-.315.315.315v2.285l-.315.314Zm0,.866.314-.314.315.314v2.285l-.315.314-.314-.314Z" transform="translate(-0.495 -1.728)"/>
    <path d="M.81,192.191l.314.314v2.285L.81,195.1.5,194.79v-2.285Zm2.717.2H1.243l-.314-.315.314-.315H3.527l.316.315Zm-2.6,2.836.314-.314H3.527l.316.314-.316.315H1.243Zm.314,2.837H3.527l.316.315-.316.314H1.243l-.314-.314Zm2.718.2-.315-.315v-2.284l.315-.315.314.315v2.284Z" transform="translate(-0.495 -1.728)"/>
    <path d="M5.9,192.409v2.285l-.315.314-.314-.314v-2.285l.314-.314Zm-.315,2.837.315.315v2.284l-.315.315-.314-.315v-2.284Zm.434-.434H8.3l.315.315-.315.315H6.014l-.315-.315Zm1.79-.167L6.063,192.9v-.446h.445L8.249,194.2v.446Zm-1.741,1.41v-.445h.445l2.139,2.14v.444H8.2Z" transform="translate(-0.495 -1.728)"/>
    <path d="M13.713,197.449v.443h-.446l-2.142-2.142v-.444h.445Zm-2.238.611H13.2v0h.563l.312.313-.314.314H11.475l-.315-.314Zm1.723,0v0h.562l0,0Z" transform="translate(-0.495 -1.728)"/>
    <path d="M19.146,198.06l.316.315-.316.314H16.862l-.314-.314.314-.315Z" transform="translate(-0.495 -1.728)"/>
    <path d="M23.046,197.449v.443H22.6l-2.142-2.142v-.444H20.9Zm-2.238.611H22.53v0h.563l.312.313-.314.314H20.808l-.315-.314Zm1.723,0v0h.562l0,0Z" transform="translate(-0.495 -1.728)"/>
    <path d="M26.51,192.446v2.284l-.315.315-.314-.315v-2.284l.314-.315Zm2.4,2.4.316.315-.316.315H26.629l-.315-.315.315-.315Zm.434.2-.315-.315v-2.284l.315-.315.314.315v2.284Zm-.315.552.315-.314.314.314v2.285l-.314.314-.315-.314Z" transform="translate(-0.495 -1.728)"/>
    <path d="M30.966,192.2l.314.315v2.277l-.314.314-.315-.314v-2.277Zm.314,3.462v2.284l-.314.315-.315-.315V195.66l.315-.315Zm.119,2.4h2.285l.315.315-.315.314H31.4l-.314-.314Z" transform="translate(-0.495 -1.728)"/>
    <path d="M36.472,198.375l.314-.315H39.07l.316.315-.316.314H36.786Zm2.948-2.623-2.14,2.14h-.444v-.445l2.14-2.139h.444Z" transform="translate(-0.495 -1.728)"/>
    <path d="M41.9,195.594l.314-.315.314.315v2.286l-.314.314-.314-.314Zm.843-.518h-.445v-.445l2.539-2.538h.444v.445Z" transform="translate(-0.495 -1.728)"/>
    <path d="M48.068,195.013l-.314-.315v-2.284l.314-.315.315.315V194.7Zm.084.648v-.445H48.6l2.538,2.538v.445h-.445Zm2.95-3.681-.316.315H48.5l-.314-.315.314-.314h2.284Z" transform="translate(-0.495 -1.728)"/>
    <path d="M54.242,194.73l-.314.315-.315-.315v-2.284l.315-.315.314.315Zm-.629.867.315-.314.314.314v2.285l-.314.314-.315-.314Z" transform="translate(-0.495 -1.728)"/>
    <path d="M55.815,194.79l-.314.314-.314-.314v-2.285l.314-.314.314.314Zm-.628.867.314-.315.314.315v2.284l-.314.315-.314-.315Zm3.032-3.27H55.935l-.315-.315.315-.315h2.284l.315.315Zm-2.284,5.673h2.284l.315.315-.315.314H55.935l-.315-.314Zm2.4-3.27v-2.285l.314-.314.315.314v2.285l-.315.314Zm0,.867.314-.315.315.315v2.284l-.315.315-.314-.315Z" transform="translate(-0.495 -1.728)"/>
    <path d="M60.586,194.79l-.315.314-.314-.314v-2.285l.314-.314.315.314Zm-.629.867.314-.315.315.315v2.284l-.315.315-.314-.315Zm3.032-3.27H60.705l-.314-.315.314-.315h2.284l.316.315Zm-2.284,5.673h2.284l.316.315-.316.314H60.705l-.314-.314Zm2.4-3.27v-2.285l.315-.314.314.314v2.285l-.314.314Zm0,.867.315-.315.314.315v2.284l-.314.315-.315-.315Z" transform="translate(-0.495 -1.728)"/>
    <path d="M.81,203.969l.314.315v2.281l-.314.315L.5,206.565v-2.281Zm0,3.152.314.315v2.284l-.314.315L.5,209.72v-2.284Zm.433.192L.929,207l.09-.089.224-.226H3.527l.316.315-.316.314Zm.05.617v-.445h.444l2.14,2.139v.445H3.432Z" transform="translate(-0.495 -1.728)"/>
    <path d="M5.5,206.665l-.314.314-.315-.314V204.38l.315-.315.314.315Zm-.314.552.314.314v2.285l-.314.314-.315-.314v-2.285ZM5.3,207.1l.314-.315H7.9l.316.315-.316.315H5.617Zm.314,3.466L5.3,210.25l.314-.315H7.9l.316.315-.316.314Zm1.792-3.95-1.741-1.741v-.445h.445l1.741,1.741v.445Z" transform="translate(-0.495 -1.728)"/>
    <path d="M9.754,206.665l-.315.314-.314-.314V204.38l.314-.315.315.315Zm-.315.552.315.314v2.285l-.315.314-.314-.314v-2.285Zm.12-.119.314-.315h2.284l.316.315-.316.315H9.873Zm.314,3.466-.314-.314.314-.315h2.284l.316.315-.316.314Zm1.792-3.95-1.741-1.741v-.445h.445l1.741,1.741v.445Z" transform="translate(-0.495 -1.728)"/>
    <path d="M14.089,204.321v2.285l-.315.314-.314-.314v-2.285l.314-.314Zm-.629,3.152.314-.315.315.315v2.284l-.315.315-.314-.315Zm.748-.748h2.284l.316.315-.316.314H14.208l-.314-.314Zm1.79-.168-1.74-1.741v-.445H14.7l1.741,1.741v.445Z" transform="translate(-0.495 -1.728)"/>
    <path d="M18.109,204l.315.315V206.6l-.315.314L17.8,206.6v-2.285Zm-.314,3.466.314-.314.315.314v2.285l-.315.314-.314-.314Zm1.242-3.1,1.742,1.741v.445h-.445l-1.741-1.74v-.446Zm2.224,5.7-.315-.314v-2.285l.315-.314.315.314v2.285Zm-.314-5.75.315-.315.314.315V206.6l-.314.314-.315-.314Zm.8.5v-.446h.445l2.138,2.138v.445h-.445Zm2.668,2.342.316.314v2.285l-.316.314-.314-.314v-2.285Z" transform="translate(-0.495 -1.728)"/>
    <path d="M27.208,207.471l.314-.315.315.315v2.286l-.315.314-.314-.314Zm.844-.518h-.446v-.445l2.54-2.538h.444v.445Z" transform="translate(-0.495 -1.728)"/>
    <path d="M33.381,206.89l-.315-.315v-2.284l.315-.315.314.315v2.284Zm.084.648v-.445h.445l2.538,2.538v.445H36Zm2.949-3.681-.315.315H33.814l-.314-.315.314-.314H36.1Z" transform="translate(-0.495 -1.728)"/>
    <path d="M39.371,207.12l2.14,2.143v.445h-.446l-2.139-2.143v-.445Zm2.622-.2-.314-.314v-2.285l.314-.314.315.314v2.285Zm-.314.553.314-.315.315.315v2.284l-.315.315-.314-.315Z" transform="translate(-0.495 -1.728)"/>
    <path d="M43.614,206.915,43.3,206.6v-2.285l.314-.315.315.315V206.6Zm.53.2,2.139,2.139v.446h-.445l-2.14-2.14v-.445Zm2.307,2.633v-2.284l.315-.314.314.314v2.284l-.314.315Zm.317-2.836-.315-.315v-2.285l.315-.314.314.314V206.6Z" transform="translate(-0.495 -1.728)"/>
    <path d="M48.385,204l.314.315V206.6l-.314.314-.315-.314v-2.285Zm-.315,3.466.315-.314.314.314v2.285l-.314.314-.315-.314Zm1.242-3.1,1.743,1.741v.445h-.446l-1.741-1.74v-.446Zm2.224,5.7-.314-.314v-2.285l.314-.314.316.314v2.285Zm-.313-5.75.314-.315.315.315V206.6l-.315.314-.314-.314Zm.8.5v-.446h.445L54.6,206.5v.445h-.446Zm2.668,2.342.315.314v2.285l-.315.314-.315-.314v-2.285Z" transform="translate(-0.495 -1.728)"/>
    <path d="M56.627,204.321v2.285l-.315.314L56,206.606v-2.285l.314-.314ZM56,207.473l.314-.315.315.315v2.284l-.315.315L56,209.757Zm.748-.748H59.03l.316.315-.316.314H56.746l-.314-.314Zm1.79-.168-1.74-1.741v-.445h.444l1.741,1.741v.445Z" transform="translate(-0.495 -1.728)"/>
    <path d="M62.132,204.068l.314.314v2.285l-.314.314-.315-.314v-2.285Zm2.718.2H62.565l-.314-.315.314-.315H64.85l.315.315Zm-2.6,2.836.314-.314H64.85l.315.314-.315.315H62.565Zm.314,2.837H64.85l.315.314-.315.315H62.565l-.314-.315Zm2.718.2-.314-.315v-2.284l.314-.315.315.315v2.284Z" transform="translate(-0.495 -1.728)"/>
    <path d="M67.068,206.667l-.314.314-.315-.314v-2.285l.315-.314.314.314Zm-.629.867.315-.315.314.315v2.284l-.314.315-.315-.315Zm3.033-3.27H67.188l-.315-.315.315-.315h2.284l.315.315Zm-2.284,5.673h2.284l.315.315-.315.314H67.188l-.315-.314Zm2.4-3.27v-2.285l.314-.314.315.314v2.285l-.315.314Zm0,.867.314-.315.315.315v2.284l-.315.315-.314-.315Z" transform="translate(-0.495 -1.728)"/>
    <path d="M1.124,218.547l-.314.314L.5,218.547v-2.285l.315-.314.314.314Zm-.629.867L.81,219.1l.314.315V221.7l-.314.315L.5,221.7Zm3.032-3.27H1.243l-.314-.315.314-.315H3.527l.316.315Zm-2.6,2.836.314-.314H3.527l.316.314-.316.315H1.243Zm.314,2.837H3.527l.316.315-.316.314H1.243l-.314-.314Zm2.4-.119v-2.284l.315-.315.314.315V221.7l-.314.315Z" transform="translate(-0.495 -1.728)"/>
    <path d="M5.9,216.163v2.285l-.315.314-.314-.314v-2.285l.314-.314ZM5.58,219l.315.314V221.6l-.315.315-.314-.315v-2.285Zm.434-.434H8.3l.315.315L8.3,219.2H6.014l-.315-.315ZM7.8,218.4l-1.741-1.74v-.446h.445l1.741,1.741v.445Zm-1.741,1.411v-.445h.445L8.647,221.5v.445H8.2Z" transform="translate(-0.495 -1.728)"/>
    <path d="M9.581,217.732l.315-.314.314.314v2.291l-.314.315-.315-.315Zm.844-.517H9.979v-.445l.963-.962h.446v.444Zm.517,4.733-.963-.963v-.444h.446l.963.962v.445Z" transform="translate(-0.495 -1.728)"/>
    <path d="M12.7,215.952l.315.315v2.276l-.315.315-.314-.315v-2.276Zm.315,3.462V221.7l-.315.315-.314-.315v-2.284l.314-.315Zm.119,2.4h2.284l.315.315-.315.314H13.13l-.315-.314Z" transform="translate(-0.495 -1.728)"/>
    <path d="M18.124,216.77v.445H17.68l-.963-.963v-.444h.445Zm-.444,3.771h.444v.444l-.962.963h-.445V221.5Zm.529-3.123.314.314v2.291l-.314.315-.315-.315v-2.291Z" transform="translate(-0.495 -1.728)"/>
    <path d="M23.6,221.814l.315.315-.315.314H21.316L21,222.129l.314-.315Z" transform="translate(-0.495 -1.728)"/>
    <path d="M27.5,221.2v.443h-.446L24.911,219.5v-.444h.445Zm-2.238.611h1.722v0h.563l.312.313-.314.314H25.261l-.315-.314Zm1.723,0v0h.562l0,0Z" transform="translate(-0.495 -1.728)"/>
    <path d="M30.964,218.547l-.315.314-.314-.314v-2.285l.314-.314.315.314Zm-.629.867.314-.315.315.315V221.7l-.315.315-.314-.315Zm3.032-3.27H31.083l-.314-.315.314-.315h2.284l.316.315Zm-2.6,2.836.314-.314h2.284l.316.314-.316.315H31.083Zm.314,2.837h2.284l.316.315-.316.314H31.083l-.314-.314Zm2.4-.119v-2.284l.315-.315.314.315V221.7l-.314.315Z" transform="translate(-0.495 -1.728)"/>
    <path d="M35.42,215.952l.314.315v2.276l-.314.315-.315-.315v-2.276Zm.314,3.462V221.7l-.314.315L35.1,221.7v-2.284l.315-.315Zm.12,2.4h2.284l.315.315-.315.314H35.854l-.315-.314Z" transform="translate(-0.495 -1.728)"/>
    <path d="M38.945,217.732l.315-.314.314.314v2.291l-.314.315-.315-.315Zm.844-.517h-.445v-.445l.963-.962h.445v.444Zm.518,4.733-.963-.963v-.444h.445l.963.962v.445Z" transform="translate(-0.495 -1.728)"/>
    <path d="M42.375,218.542l-.314.314-.315-.314v-2.285l.315-.315.314.315Zm-.314.552.314.314v2.285l-.314.314-.315-.314v-2.285Zm.119-.119.314-.315h2.284l.316.315-.316.315H42.494Zm.314,3.466-.314-.315.314-.314h2.284l.316.314-.316.315Zm1.792-3.95-1.741-1.741v-.445h.445l1.741,1.741v.445Z" transform="translate(-0.495 -1.728)"/>
    <path d="M46.307,215.952l.314.315v2.276l-.314.315-.315-.315v-2.276Zm.314,3.462V221.7l-.314.315-.315-.315v-2.284l.315-.315Zm.119,2.4h2.284l.316.315-.316.314H46.74l-.314-.314Z" transform="translate(-0.495 -1.728)"/>
    <path d="M51.734,216.77v.445H51.29l-.963-.963v-.444h.445Zm-.444,3.771h.444v.444l-.962.963h-.445V221.5Zm.529-3.123.315.314v2.291l-.315.315-.315-.315v-2.291Z" transform="translate(-0.495 -1.728)"/>
    <path d="M57.2,221.2v.443h-.446L54.612,219.5v-.444h.446Zm-2.238.611h1.723v0h.562l.313.313-.315.314H54.962l-.315-.314Zm1.724,0v0h.561l0,0Z" transform="translate(-0.495 -1.728)"/>
    <path d="M62.95,215.826l-.315.315H60.351l-.315-.315.315-.315h2.284Zm0,3.151-.315.315H60.351l-.315-.315.315-.314h2.284Zm-2.6,2.837h2.284l.315.314-.315.315H60.351l-.315-.315Zm2.717-2.956-.314-.315v-2.284l.171-.171.143-.143.316.314v2.284Zm.316,2.837-.316.315-.314-.315v-2.284l.171-.171.143-.144.316.315Z" transform="translate(-0.495 -1.728)"/>
    <path d="M65.855,222.129l.315-.315h2.284l.316.315-.316.314H66.17Zm2.949-2.623-2.14,2.14H66.22V221.2l2.139-2.139H68.8Z" transform="translate(-0.495 -1.728)"/>
    <path d="M3.094,233.691l.315.315-.315.314H.81L.5,234.006l.315-.315Z" transform="translate(-0.495 -1.728)"/>
    <path d="M6.992,233.08v.443H6.546L4.4,231.381v-.444H4.85Zm-2.238.611H6.477v0H7.04l.313.313-.315.314H4.754l-.315-.314Zm1.724,0v0h.561l0,0Z" transform="translate(-0.495 -1.728)"/>
    <path d="M10.457,228.077v2.284l-.314.315-.315-.315v-2.284l.315-.315Zm2.4,2.4.316.314-.316.315H10.576l-.314-.315.314-.314Zm.434.2-.315-.315v-2.284l.315-.315.314.315v2.284Zm-.315.552.315-.314.314.314v2.285l-.314.314-.315-.314Z" transform="translate(-0.495 -1.728)"/>
    <path d="M15.228,228.04v2.285l-.315.314-.314-.314V228.04l.314-.314Zm-.315,2.837.315.314v2.285l-.315.315-.314-.315v-2.285Zm.434-.434h2.284l.315.315-.315.315H15.347l-.315-.315Zm1.79-.168-1.741-1.74v-.446h.445l1.741,1.741v.445ZM15.4,231.686v-.445h.445l2.139,2.139v.445h-.444Z" transform="translate(-0.495 -1.728)"/>
    <path d="M21.769,227.73l-.288.288h-.709l-.314-.315.314-.315h.709l.315.315Zm-1,5.961h.709l.315.315-.315.314h-.709l-.314-.314Zm1.457-3.27-.314.314-.314-.314v-2.285l.314-.314.314.314Zm0,3.151-.314.315-.314-.315v-2.284l.314-.315.314.315Z" transform="translate(-0.495 -1.728)"/>
    <path d="M23.533,227.822l.123.122.192.192v2.285l-.315.314-.314-.314v-2.285Zm-.314,3.466.314-.315.315.315v2.284l-.315.315-.314-.315Zm1.457-3.27h-.709l-.315-.315.315-.315h.709l.314.315Zm-1.024,5.988.315-.315h.709l.314.315-.314.314h-.709Z" transform="translate(-0.495 -1.728)"/>
    <path d="M27.465,231.225l.314-.315.315.315v2.286l-.315.314-.314-.314Zm.844-.518h-.446v-.445l2.539-2.538h.445v.445Z" transform="translate(-0.495 -1.728)"/>
    <path d="M33.953,230.418l-.314.315-.315-.315v-2.284l.315-.315.314.315Zm0,.867v2.285l-.314.314-.315-.314v-2.285l.315-.314Zm.119-.748h2.284l.316.315-.316.315H34.072l-.314-.315Zm0,3.151h2.284l.316.315-.316.315H34.072L33.758,234Zm2.236-3.319h-.446l-1.74-1.741v-.445h.444l1.742,1.741Zm-2.186,1.411v-.446h.444l1.742,1.742v.445h-.446Z" transform="translate(-0.495 -1.728)"/>
    <path d="M38.288,228.04v2.285l-.314.314-.315-.314V228.04l.315-.314Zm-.314,2.837.314.314v2.285l-.314.315-.315-.315v-2.285Zm.433-.434h2.284l.316.315-.316.315H38.407l-.314-.315Zm1.79-.168-1.74-1.74v-.446H38.9l1.742,1.741v.445Zm-1.74,1.411v-.445H38.9l2.14,2.139v.445H40.6Z" transform="translate(-0.495 -1.728)"/>
    <path d="M42.348,230.674l-.315-.314v-2.285l.315-.314.314.314v2.285Zm0,3.152-.315-.315v-2.284l.315-.315.314.315v2.284Z" transform="translate(-0.495 -1.728)"/>
    <path d="M44.285,230.418l-.314.315-.315-.315v-2.284l.315-.315.314.315Zm-.629.867.315-.314.314.314v2.285l-.314.314-.315-.314Zm.748,2.4h2.284L47,234l-.316.315H44.4L44.09,234Zm.05-5.06v-.445H44.9l2.14,2.14v.445h-.445Zm2.668,5.256-.314-.314v-2.285l.314-.314.315.314v2.285Z" transform="translate(-0.495 -1.728)"/>
    <path d="M51.025,230.537l.093.092.223.223-.316.315H48.741l-.314-.315.314-.315Zm-2.284,3.151h2.284l.316.315-.316.315H48.741L48.427,234Zm2.236-5.059-1.741,1.74h-.445v-.445l1.74-1.74h.446Zm.168,1.789v-2.284l.314-.315.315.315v2.284l-.315.315Zm0,.867.314-.314.315.314v2.285l-.315.314-.314-.314Z" transform="translate(-0.495 -1.728)"/>
    <path d="M53.391,230.418l-.315.315-.314-.315v-2.284l.314-.315.315.315Zm-.315.553.315.314v2.285l-.315.314-.314-.314v-2.285Zm.119-.119.315-.315h2.284l.315.315-.315.315H53.51Zm.315,3.466L53.2,234l.315-.315h2.284l.315.315-.315.315Zm1.792-3.95-1.741-1.741v-.445h.445l1.741,1.741v.445Z" transform="translate(-0.495 -1.728)"/>
    <path d="M57.1,229.609l.314-.314.315.314V231.9l-.315.315L57.1,231.9Zm.843-.517H57.5v-.445l.963-.962H58.9v.444Zm.518,4.733-.963-.963v-.445h.445l.963.963v.445Z" transform="translate(-0.495 -1.728)"/>
    <path d="M60.212,227.829l.314.315v2.276l-.314.315-.315-.315v-2.276Zm.314,3.462v2.284l-.314.315-.315-.315v-2.284l.315-.315Zm.12,2.4H62.93l.315.315-.315.314H60.646l-.315-.314Z" transform="translate(-0.495 -1.728)"/>
    <path d="M65.64,228.647v.445h-.445l-.963-.963v-.444h.446Zm-.445,3.77h.445v.445l-.962.963h-.446v-.445Zm.53-3.122.314.314V231.9l-.314.315-.316-.315v-2.291Z" transform="translate(-0.495 -1.728)"/>
    <path d="M71.105,233.08v.443h-.446l-2.141-2.142v-.444h.445Zm-2.238.611H70.59v0h.562l.313.313-.315.314H68.867l-.314-.314Zm1.724,0v0h.561l0,0Z" transform="translate(-0.495 -1.728)"/>
    <path d="M75.371,227.7l-.315.315H72.771l-.314-.315.314-.315h2.285Zm0,3.151-.315.315H72.771l-.314-.315.314-.314h2.285Zm-2.6,2.837h2.285l.315.314-.315.315H72.771l-.314-.315Zm2.718-2.956-.314-.315v-2.284l.171-.171.143-.143.316.314v2.284Zm.316,2.837-.316.315-.314-.315v-2.284l.171-.171.143-.144.316.315Z" transform="translate(-0.495 -1.728)"/>
    <path d="M.81,239.6l.314.315V242.2l-.314.315L.5,242.2v-2.281Zm0,3.152.314.314v2.285l-.314.315L.5,245.351v-2.285Zm.433.192-.314-.314.09-.089.224-.226H3.527l.316.315-.316.314Zm.05.617v-.445h.444l2.14,2.139v.445H3.432Z" transform="translate(-0.495 -1.728)"/>
    <path d="M5.5,242.3l-.314.315-.315-.315v-2.284l.315-.315.314.315Zm-.314.553.314.314v2.285l-.314.314-.315-.314v-2.285Zm.119-.119.314-.315H7.9l.316.315-.316.314H5.617Zm.314,3.466L5.3,245.88l.314-.315H7.9l.316.315L7.9,246.2Zm1.792-3.95L5.668,240.5v-.445h.445L7.854,241.8v.445Z" transform="translate(-0.495 -1.728)"/>
    <path d="M9.754,242.3l-.315.315-.314-.315v-2.284l.314-.315.315.315Zm-.315.553.315.314v2.285l-.315.314-.314-.314v-2.285Zm.12-.119.314-.315h2.284l.316.315-.316.314H9.873Zm.314,3.466-.314-.315.314-.315h2.284l.316.315-.316.315Zm1.792-3.95L9.924,240.5v-.445h.445L12.11,241.8v.445Z" transform="translate(-0.495 -1.728)"/>
    <path d="M14.089,239.952v2.285l-.315.314-.314-.314v-2.285l.314-.314ZM13.46,243.1l.314-.315.315.315v2.284l-.315.315-.314-.315Zm.748-.749h2.284l.316.315-.316.315H14.208l-.314-.315Zm1.79-.167-1.74-1.741V240H14.7l1.741,1.742v.445Z" transform="translate(-0.495 -1.728)"/>
    <path d="M18.335,239.917V242.2l-.314.314-.315-.314v-2.285l.315-.314Zm-.314,2.837.314.314v2.285l-.314.314-.315-.314v-2.285Zm.433-.434h2.284l.316.315-.316.315H18.454l-.314-.315Zm1.79-.168-1.74-1.74v-.446h.444l1.741,1.741v.445Zm-1.74,1.411v-.445h.444l2.14,2.139v.445h-.444Z" transform="translate(-0.495 -1.728)"/>
    <path d="M23.565,243.1l.315-.315.314.315v2.286l-.314.314-.315-.314Zm.844-.518h-.445v-.445L26.5,239.6h.444v.445Z" transform="translate(-0.495 -1.728)"/>
    <path d="M29.739,242.615l-.314-.314v-2.285l.314-.314.315.314V242.3Zm0,.238.315.314v2.285l-.315.315-.314-.315v-2.285Zm3.033-3.27-.315.314H30.173l-.315-.314.315-.315h2.284Zm0,3.151-.315.315H30.173l-.315-.315.315-.315h2.284Zm0,3.152-.315.314H30.173l-.315-.314.315-.315h2.284Zm-.315-5.989.315-.314Zm.119,2.4v-2.285l.315-.314.314.314V242.3l-.314.314-.086-.086Zm.273.594.042-.042.315.314v2.285l-.315.315-.086-.086-.229-.229v-2.285Z" transform="translate(-0.495 -1.728)"/>
    <path d="M34.734,242.3l-.314.314L34.1,242.3v-2.285l.315-.314.314.314Zm-.629.867.315-.315.314.315v2.284l-.314.315-.315-.315Zm3.033-3.27H34.854l-.315-.315.315-.315h2.284l.315.315Zm-2.284,5.673h2.284l.315.315-.315.314H34.854l-.315-.314Zm2.4-3.27v-2.285l.314-.314.315.314V242.3l-.315.314Zm0,.867.314-.315.315.315v2.284l-.315.315-.314-.315Z" transform="translate(-0.495 -1.728)"/>
    <path d="M3.094,257.444l.315.315-.315.315H.81L.5,257.759l.315-.315Z" transform="translate(-0.495 -1.728)"/>
    <path d="M6.992,256.833v.443H6.546L4.4,255.135v-.445H4.85Zm-2.238.611H6.477v0H7.04l.313.313-.315.315H4.754l-.315-.315Zm1.724,0v0h.561l0,0Z" transform="translate(-0.495 -1.728)"/>
    <path d="M10.143,251.477l.314.315v2.281l-.314.315-.315-.315v-2.281Zm0,3.151.314.315v2.284l-.314.315-.315-.315v-2.284Zm.433.193-.314-.315.09-.089.224-.226H12.86l.316.315-.316.315Zm.05.616v-.445h.444l2.14,2.139v.446h-.445Z" transform="translate(-0.495 -1.728)"/>
    <path d="M14.831,254.172l-.314.314-.315-.314v-2.284l.315-.315.314.315Zm-.314.552.314.315v2.284l-.314.315-.315-.315v-2.284Zm.119-.119.314-.314h2.284l.316.314-.316.315H14.95Zm.314,3.466-.314-.314.314-.315h2.284l.316.315-.316.314Zm1.792-3.95L15,252.38v-.445h.445l1.742,1.741v.445Z" transform="translate(-0.495 -1.728)"/>
    <path d="M19.087,254.172l-.315.314-.314-.314v-2.284l.314-.315.315.315Zm-.315.552.315.315v2.284l-.315.315-.314-.315v-2.284Zm.12-.119.314-.314H21.49l.316.314-.316.315H19.206Zm.314,3.466-.314-.314.314-.315H21.49l.316.315-.316.314ZM21,254.121l-1.741-1.741v-.445H19.7l1.741,1.741v.445Z" transform="translate(-0.495 -1.728)"/>
    <path d="M23.422,251.829v2.284l-.315.315-.314-.315v-2.284l.314-.315Zm-.629,3.151.314-.314.315.314v2.285l-.315.314-.314-.314Zm.748-.748h2.284l.316.315-.316.314H23.541l-.314-.314Zm1.79-.168-1.74-1.741v-.445h.444l1.741,1.741v.445Z" transform="translate(-0.495 -1.728)"/>
    <path d="M27.442,251.509l.315.314v2.285l-.315.314-.314-.314v-2.284Zm-.314,3.466.314-.315.315.315v2.284l-.315.315-.314-.315Zm1.242-3.1,1.742,1.741v.445h-.445l-1.741-1.741v-.445Zm2.224,5.7-.315-.315v-2.284l.315-.315.315.315v2.284Zm-.314-5.751.315-.314.314.314v2.285l-.314.314-.315-.314Zm.8.5v-.445h.445l2.138,2.138v.445h-.445Zm2.668,2.342.316.315v2.284l-.316.315-.314-.315v-2.284Z" transform="translate(-0.495 -1.728)"/>
    <path d="M36.541,254.978l.314-.314.315.314v2.286l-.315.315-.314-.315Zm.844-.518h-.446v-.444l2.54-2.539h.444v.445Z" transform="translate(-0.495 -1.728)"/>
    <path d="M42.4,253.363l.315-.315.314.315v2.29l-.314.315-.315-.315Zm.844-.518H42.8V252.4l.963-.962h.445v.445Zm.518,4.734-.963-.963v-.445h.445l.963.963v.445Z" transform="translate(-0.495 -1.728)"/>
    <path d="M45.515,251.583l.314.314v2.277l-.314.315-.315-.315V251.9Zm.314,3.461v2.285l-.314.314-.315-.314v-2.285l.315-.315Zm.119,2.4h2.284l.316.315-.316.315H45.948l-.314-.315Z" transform="translate(-0.495 -1.728)"/>
    <path d="M50.942,252.4v.445H50.5l-.963-.962v-.445h.445Zm-.444,3.771h.444v.445l-.962.963h-.445v-.445Zm.529-3.123.315.315v2.29l-.315.315-.315-.315v-2.29Z" transform="translate(-0.495 -1.728)"/>
    <path d="M52.65,254.4l-.314-.314V251.8l.314-.315.315.315v2.285Zm.084.648V254.6h.446l2.538,2.539v.444h-.445Zm2.95-3.68-.316.314H53.084l-.314-.314.314-.315h2.284Z" transform="translate(-0.495 -1.728)"/>
    <path d="M59.533,256.122l-.314.315H58.51l-.315-.315.315-.315h.709Zm.119-.119-.314-.315v-.709l.314-.314.315.314v.709Zm.144.381.171.171v.709l-.315.315-.314-.315v-.709l.171-.171.143-.143Zm-.025-.262.315-.315h.71l.314.315-.314.315h-.71l-.229-.229Z" transform="translate(-0.495 -1.728)"/>
    <path d="M64.034,254.627l2.14,2.144v.444h-.445l-2.14-2.142v-.446Zm2.622-.2-.314-.315v-2.284l.314-.315.315.315v2.284Zm-.314.552.314-.314.315.314v2.285l-.315.314-.314-.314Z" transform="translate(-0.495 -1.728)"/>
    <path d="M68.278,254.422l-.314-.314v-2.285l.314-.314.315.314v2.284Zm.53.2,2.139,2.14v.444H70.5l-2.14-2.139v-.445Zm2.307,2.634v-2.284l.315-.315.314.315v2.284l-.314.315Zm.317-2.837-.315-.315v-2.284l.315-.315.314.315v2.284Z" transform="translate(-0.495 -1.728)"/>
    <path d="M73.049,251.509l.314.314v2.285l-.314.314-.315-.314v-2.284Zm-.315,3.466.315-.315.314.315v2.284l-.314.315-.315-.315Zm1.243-3.1,1.742,1.741v.445h-.446l-1.741-1.741v-.445Zm2.223,5.7-.314-.315v-2.284l.314-.315.316.315v2.284Zm-.313-5.751.314-.314.315.314v2.285l-.315.314-.314-.314Zm.8.5v-.445h.445l2.138,2.138v.445h-.446Zm2.668,2.342.315.315v2.284l-.315.315-.315-.315v-2.284Z" transform="translate(-0.495 -1.728)"/>
    <path d="M81.291,251.829v2.284l-.314.315-.315-.315v-2.284l.315-.315Zm-.629,3.151.315-.314.314.314v2.285l-.314.314-.315-.314Zm.748-.748h2.284l.316.315-.316.314H81.41l-.314-.314Zm1.79-.168-1.74-1.741v-.445H81.9l1.742,1.741v.445Z" transform="translate(-0.495 -1.728)"/>
    <path d="M86.8,254.492l-.315-.315v-2.284l.315-.315.314.315v2.284Zm0,.237.314.315v2.285l-.314.314-.315-.314v-2.285Zm3.033-3.27-.315.315H87.229l-.314-.315.314-.314h2.285Zm0,3.151-.315.315H87.229l-.314-.315.314-.314h2.285Zm0,3.152-.315.315H87.229l-.314-.315.314-.315h2.285Zm-.315-5.988.315-.315Zm.119,2.4v-2.284l.314-.315.315.315v2.284l-.315.315-.086-.086Zm.272.594.042-.042.316.315v2.285l-.316.314-.086-.086-.228-.228v-2.285Z" transform="translate(-0.495 -1.728)"/>
    <path d="M91.792,254.174l-.314.315-.315-.315V251.89l.315-.315.314.315Zm-.629.867.315-.314.314.314v2.285l-.314.314-.315-.314Zm3.032-3.27H91.911l-.314-.314.314-.315H94.2l.316.315Zm-2.284,5.673H94.2l.316.315-.316.315H91.911l-.314-.315Zm2.4-3.27V251.89l.315-.315.314.315v2.284l-.314.315Zm0,.867.315-.314.314.314v2.285l-.314.314-.315-.314Z" transform="translate(-0.495 -1.728)"/>
    <path d="M.81,263.354l.314.314v2.282l-.314.315L.5,265.95v-2.282Zm0,3.151.314.315V269.1l-.314.315L.5,269.1V266.82Zm.433.193-.314-.315.09-.089.224-.226H3.527l.316.315-.316.315Zm.05.616v-.445h.444l2.14,2.139v.446H3.432Z" transform="translate(-0.495 -1.728)"/>
    <path d="M5.5,266.049l-.314.314-.315-.314v-2.284l.315-.315.314.315Zm-.314.552.314.315V269.2l-.314.315-.315-.315v-2.284Zm.119-.119.314-.315H7.9l.316.315L7.9,266.8H5.617Zm.314,3.466-.314-.314.314-.315H7.9l.316.315-.316.314ZM7.409,266l-1.741-1.741v-.445h.445l1.741,1.741V266Z" transform="translate(-0.495 -1.728)"/>
    <path d="M9.754,266.049l-.315.314-.314-.314v-2.284l.314-.315.315.315Zm-.315.552.315.315V269.2l-.315.315-.314-.315v-2.284Zm.12-.119.314-.315h2.284l.316.315-.316.315H9.873Zm.314,3.466-.314-.314.314-.315h2.284l.316.315-.316.314ZM11.665,266l-1.741-1.741v-.445h.445l1.741,1.741V266Z" transform="translate(-0.495 -1.728)"/>
    <path d="M14.089,263.706v2.284l-.315.315-.314-.315v-2.284l.314-.315Zm-.629,3.151.314-.315.315.315v2.285l-.315.314-.314-.314Zm.748-.748h2.284l.316.315-.316.314H14.208l-.314-.314Zm1.79-.168-1.74-1.741v-.445H14.7l1.741,1.741v.445Z" transform="translate(-0.495 -1.728)"/>
    <path d="M18.03,263.459l.315.315v2.277l-.315.315-.314-.315v-2.277Zm.315,3.462v2.285l-.315.314-.314-.314v-2.285l.314-.315Zm.119,2.4h2.284l.315.315-.315.315H18.464l-.315-.315Z" transform="translate(-0.495 -1.728)"/>
    <path d="M23.535,266.855l.315-.314.314.314v2.286l-.314.315-.315-.315Zm.844-.518h-.445v-.444l2.539-2.539h.444v.445Z" transform="translate(-0.495 -1.728)"/>
    <path d="M29.84,266.5l2.139,2.143v.445h-.445L29.4,266.95V266.5Zm2.622-.2-.315-.315v-2.284l.315-.315.314.315v2.284Zm-.315.552.315-.315.314.315v2.285l-.314.314-.315-.314Z" transform="translate(-0.495 -1.728)"/>
    <path d="M34.084,266.3l-.314-.314V263.7l.314-.314.314.314v2.284Zm.529.2,2.14,2.14v.444h-.445l-2.14-2.139V266.5Zm2.308,2.634v-2.284l.314-.315.315.315v2.284l-.315.315Zm.316-2.837-.314-.315V263.7l.314-.315.315.315v2.284Z" transform="translate(-0.495 -1.728)"/>
    <path d="M38.854,263.386l.315.314v2.285l-.315.314-.314-.314V263.7Zm-.314,3.466.314-.315.315.315v2.284l-.315.315-.314-.315Zm1.242-3.1,1.742,1.741v.445h-.445L39.338,264.2v-.445Zm2.224,5.7-.315-.315v-2.284l.315-.315.315.315v2.284Zm-.314-5.751.315-.314.314.314v2.285l-.314.314-.315-.314Zm.8.5v-.445h.446l2.137,2.138v.445h-.445Zm2.668,2.342.316.315v2.284l-.316.315-.314-.315v-2.284Z" transform="translate(-0.495 -1.728)"/>
    <path d="M47.1,263.706v2.284l-.315.315-.314-.315v-2.284l.314-.315Zm-.629,3.151.314-.315.315.315v2.285l-.315.314-.314-.314Zm.748-.748H49.5l.315.315-.315.314H47.216l-.315-.314Zm1.79-.168-1.74-1.741v-.445h.444l1.741,1.741v.445Z" transform="translate(-0.495 -1.728)"/>
    <path d="M54.886,269.321l.315.315-.315.315H52.6l-.315-.315.315-.315Z" transform="translate(-0.495 -1.728)"/>
    <path d="M58.784,268.71v.443h-.446L56.2,267.012v-.445h.446Zm-2.238.611h1.723v0h.562l.313.313-.315.315H56.546l-.315-.315Zm1.724,0v0h.561l0,0Z" transform="translate(-0.495 -1.728)"/>
    <path d="M62.249,263.707v2.285l-.314.314-.315-.314v-2.285l.315-.314Zm2.4,2.4.316.315-.316.315H62.368l-.314-.315.314-.315Zm.434.2-.315-.314v-2.285l.315-.314.314.314v2.285Zm-.315.552.315-.314.314.314v2.285l-.314.315-.315-.315Z" transform="translate(-0.495 -1.728)"/>
    <path d="M67.02,263.67v2.285l-.315.315-.314-.315V263.67l.314-.314Zm-.315,2.837.315.315v2.284l-.315.315-.314-.315v-2.284Zm.434-.433h2.284l.315.314-.315.315H67.139l-.315-.315Zm1.79-.168-1.741-1.741v-.445h.445l1.741,1.74v.446Zm-1.741,1.41v-.445h.445l2.139,2.14v.445h-.444Z" transform="translate(-0.495 -1.728)"/>
    <path d="M70.705,265.24l.315-.315.314.315v2.29l-.314.315-.315-.315Zm.844-.518H71.1v-.445l.962-.962h.446v.445Zm.517,4.734-.962-.963v-.445h.445l.963.963v.445Z" transform="translate(-0.495 -1.728)"/>
    <path d="M73.82,263.459l.315.315v2.277l-.315.315-.314-.315v-2.277Zm.315,3.462v2.285l-.315.314-.314-.314v-2.285l.314-.315Zm.119,2.4h2.284l.316.315-.316.315H74.254l-.315-.315Z" transform="translate(-0.495 -1.728)"/>
    <path d="M79.248,264.277v.445H78.8l-.963-.962v-.445h.445Zm-.444,3.771h.444v.445l-.962.963h-.445v-.445Zm.529-3.123.314.315v2.29l-.314.315-.315-.315v-2.29Z" transform="translate(-0.495 -1.728)"/>
    <path d="M82.127,269.636l.314-.315h2.285l.315.315-.315.315H82.441Zm2.948-2.622-2.139,2.139h-.445v-.445l2.14-2.139h.444Z" transform="translate(-0.495 -1.728)"/>
    <path d="M87.55,266.855l.314-.314.315.314v2.286l-.315.315-.314-.315Zm.844-.518h-.446v-.444l2.539-2.539h.445v.445Z" transform="translate(-0.495 -1.728)"/>
    <path d="M93.724,266.274l-.315-.315v-2.284l.315-.315.314.315v2.284Zm.084.648v-.445h.445l2.538,2.539v.444h-.444Zm2.949-3.68-.316.314H94.157l-.314-.314.314-.315h2.284Z" transform="translate(-0.495 -1.728)"/>
    <path d="M.81,275.234l.314.315v2.284l-.314.315L.5,277.833v-2.284Zm.529,4.693.963.962v.445H1.856l-.962-.962v-.445Zm2.188-1.975.316.315-.316.315H1.243l-.314-.315.314-.315ZM2.914,275.2l.963.962v.445H3.433l-.963-.962V275.2Zm.732,5.785V278.7l.315-.314.314.314v2.285l-.314.314Zm0-2.285.315-.314Z" transform="translate(-0.495 -1.728)"/>
    <path d="M5.9,277.867l-.315.314-.314-.314v-2.285l.314-.314.315.314Zm-.629.866.314-.314.315.314v2.285l-.315.315-.314-.315Zm3.032-.748.315.315-.315.315H6.014L5.7,278.3l.315-.315Zm.349-.168H8.2l-2.139-2.139v-.446h.445l2.139,2.14Zm.084,3.516-.314-.315v-2.285l.314-.314.315.314v2.285Z" transform="translate(-0.495 -1.728)"/>
    <path d="M10.212,278.151l-.315-.315v-2.284l.315-.315.314.315v2.284Zm.084.648v-.445h.445l2.538,2.539v.444h-.444Zm2.949-3.68-.315.314H10.646l-.315-.314.315-.315H12.93Z" transform="translate(-0.495 -1.728)"/>
    <path d="M18.671,275.21l-.316.315H16.071l-.314-.315.314-.314h2.284Zm0,3.151-.316.315H16.071l-.314-.315.314-.314h2.284Zm-2.6,2.837h2.284l.316.315-.316.315H16.071l-.314-.315Zm2.718-2.955-.314-.315v-2.284l.171-.171.143-.144.315.315v2.284Zm.315,2.836-.315.315-.314-.315V278.8l.171-.171.143-.144.315.315Z" transform="translate(-0.495 -1.728)"/>
    <path d="M20.632,277.928l-.315.315L20,277.928v-2.284l.314-.315.315.315ZM20,278.8l.314-.315.315.315v2.285l-.315.314L20,281.08Zm3.032-3.27H20.751l-.314-.315.314-.314h2.284l.316.314ZM20.751,281.2h2.284l.316.315-.316.315H20.751l-.314-.315Zm2.4-3.27v-2.284l.315-.315.314.315v2.284l-.314.315Zm0,.867.315-.315.314.315v2.285l-.314.314-.315-.314Z" transform="translate(-0.495 -1.728)"/>
    <path d="M26.572,275.234l.315.315v2.284l-.315.315-.314-.315v-2.284Zm.53,4.693.962.962v.445h-.445l-.963-.962v-.445Zm2.188-1.975.315.315-.315.315H27.006l-.315-.315.315-.315Zm-.613-2.752.963.962v.445H29.2l-.963-.962V275.2Zm.732,5.785V278.7l.315-.314.314.314v2.285l-.314.314Zm0-2.285.315-.314Z" transform="translate(-0.495 -1.728)"/>
    <path d="M31.343,275.336l.314.315v2.277l-.314.315-.315-.315v-2.277Zm.314,3.462v2.285l-.314.314-.315-.314V278.8l.315-.315Zm.119,2.4h2.285l.315.315-.315.315H31.776l-.314-.315Z" transform="translate(-0.495 -1.728)"/>
    <path d="M35.992,281.079l-.257.257-.057.057-.315-.314v-2.291l.315-.314.314.314Zm2.355-5.386v.446l-2.14,2.139h-.445v-.445l2.139-2.14Zm.049,5.5.315.315-.315.315H36.111l-.314-.315.314-.315Zm.119-3.262v-2.29l.314-.315.316.315v2.29l-.309.308-.007-.007-.007.007Zm0,.853.307-.308.007.007.007-.007.308.308v2.291l-.315.314-.314-.314Zm.314-.552.007.007-.007.007-.007-.007Z" transform="translate(-0.495 -1.728)"/>
    <path d="M40.763,277.921l-.315.315-.314-.315v-2.284l.314-.315.315.315Zm-.316.554.316.316v2.281l-.315.315-.314-.315v-2.284Zm.12-.118h0l.317.316h0Zm.315,3.466-.315-.314.315-.315,2.284-.006.315.315-.315.315Zm0-3.151-.317-.316.314-.314,2.284,0,.315.315-.315.315Z" transform="translate(-0.495 -1.728)"/>
    <path d="M48.541,280.587v.443H48.1l-2.142-2.141v-.445H46.4ZM46.3,281.2h1.722v0h.563l.312.313-.314.315H46.3l-.315-.315Zm1.723,0v0h.562l0,0Z" transform="translate(-0.495 -1.728)"/>
    <path d="M52.48,280.587v.443h-.446l-2.141-2.141v-.445h.445Zm-2.238.611h1.723v0h.562l.313.313-.315.315H50.242l-.314-.315Zm1.724,0v0h.561l0,0Z" transform="translate(-0.495 -1.728)"/>
    <path d="M53.831,278.734l.315-.315.314.315v2.285l-.314.314-.315-.314Zm3.348-.433-.316.314H54.579l-.314-.314.314-.315h2.284Zm-.41-3.069h.444v.445l-2.141,2.14h-.444v-.445Zm.213,5.787v-2.285l.315-.315.315.315v2.285l-.315.314Z" transform="translate(-0.495 -1.728)"/>
    <path d="M58.916,275.336l.314.315v2.277l-.314.315-.314-.315v-2.277Zm.314,3.462v2.285l-.314.314-.314-.314V278.8l.314-.315Zm.12,2.4h2.284l.315.315-.315.315H59.35l-.315-.315Z" transform="translate(-0.495 -1.728)"/>
    <path d="M.81,290.123.5,289.808v-2.285l.315-.314.314.314v2.285Zm0,.237.314.315v2.284l-.314.315L.5,292.959v-2.284Zm3.033-3.27-.316.315H1.243l-.314-.315.314-.315H3.527Zm0,3.151-.316.315H1.243l-.314-.315.314-.314H3.527Zm0,3.152-.316.315H1.243l-.314-.315.314-.315H3.527ZM3.527,287.4l.316-.315Zm.119,2.4v-2.285l.315-.314.314.314v2.285l-.314.315-.086-.086Zm.273.594.042-.042.315.315v2.284l-.315.315-.086-.086-.229-.229v-2.284Z" transform="translate(-0.495 -1.728)"/>
    <path d="M5.806,289.805l-.315.315-.314-.315v-2.284l.314-.315.315.315Zm-.629.867.314-.315.315.315v2.285l-.315.314-.314-.314Zm3.032-3.27H5.925l-.315-.315.315-.315H8.209l.315.315Zm-2.284,5.673H8.209l.315.315-.315.315H5.925l-.315-.315Zm2.4-3.27v-2.284l.315-.315.314.315v2.284l-.314.315Zm0,.867.315-.315.314.315v2.285l-.314.314-.315-.314Z" transform="translate(-0.495 -1.728)"/>
    <path d="M11.746,287.107l.315.315V289.7l-.315.315-.314-.315v-2.282Zm0,3.152.315.315v2.284l-.315.315-.314-.315v-2.284Zm.434.193-.315-.315.09-.089.225-.226h2.284l.315.315-.315.315Zm.049.616v-.445h.445l2.139,2.139v.446h-.445Z" transform="translate(-0.495 -1.728)"/>
    <path d="M16.436,289.8l-.315.314-.314-.314v-2.284l.314-.315.315.315Zm-.315.552.315.314v2.285l-.315.315-.314-.315v-2.285Zm.119-.119.315-.315h2.284l.315.315-.315.315H16.555Zm.315,3.466-.315-.314.315-.315h2.284l.315.315-.315.314Zm1.792-3.95-1.742-1.741v-.445h.446l1.741,1.741v.445Z" transform="translate(-0.495 -1.728)"/>
    <path d="M20.69,289.8l-.314.314-.314-.314v-2.284l.314-.315.314.315Zm-.314.552.314.314v2.285l-.314.315-.314-.315v-2.285Zm.119-.119.315-.315h2.284l.315.315-.315.315H20.81Zm.315,3.466-.315-.314.315-.315h2.284l.315.315-.315.314Zm1.792-3.95-1.742-1.741v-.445h.446l1.741,1.741v.445Z" transform="translate(-0.495 -1.728)"/>
    <path d="M25.025,287.459v2.285l-.314.315-.315-.315v-2.285l.315-.314Zm-.629,3.152.315-.315.314.315V292.9l-.314.314L24.4,292.9Zm.749-.748h2.284l.315.315-.315.314H25.145l-.315-.314Zm1.79-.168-1.741-1.741v-.445h.445l1.741,1.741v.445Z" transform="translate(-0.495 -1.728)"/>
    <path d="M28.967,287.213l.314.315v2.277l-.314.315-.315-.315v-2.277Zm.314,3.462v2.284l-.314.315-.315-.315v-2.284l.315-.315Zm.119,2.4h2.285l.315.315-.315.315H29.4l-.314-.315Z" transform="translate(-0.495 -1.728)"/>
    <path d="M34.472,290.609l.314-.315.315.315V292.9l-.315.314-.314-.314Zm.843-.518H34.87v-.445l2.539-2.538h.445v.445Z" transform="translate(-0.495 -1.728)"/>
    <path d="M40.646,290.028l-.315-.315v-2.284l.315-.315.314.315v2.284Zm.083.648v-.445h.446l2.538,2.539v.444h-.444Zm2.95-3.68-.316.314H41.079L40.765,287l.314-.315h2.284Z" transform="translate(-0.495 -1.728)"/>
    <path d="M49.1,287.087l-.315.315H46.505l-.315-.315.315-.315h2.284Zm0,3.151-.315.315H46.505l-.315-.315.315-.314h2.284Zm-2.6,2.837h2.284l.315.315-.315.315H46.505l-.315-.315Zm2.718-2.955-.315-.315v-2.284l.171-.171.144-.144.315.315v2.284Zm.315,2.836-.315.315-.315-.315v-2.284l.171-.171.144-.144.315.315Z" transform="translate(-0.495 -1.728)"/>
    <path d="M51.065,289.805l-.314.315-.314-.315v-2.284l.314-.315.314.315Zm-.628.867.314-.315.314.315v2.285l-.314.314-.314-.314Zm3.032-3.27H51.185l-.315-.315.315-.315h2.284l.315.315Zm-2.284,5.673h2.284l.315.315-.315.315H51.185l-.315-.315Zm2.4-3.27v-2.284l.314-.315.315.315v2.284l-.315.315Zm0,.867.314-.315.315.315v2.285l-.315.314-.314-.314Z" transform="translate(-0.495 -1.728)"/>
    <path d="M1.124,301.685.81,302,.5,301.685V299.4l.315-.315.314.315Zm-.629.866.315-.314.314.314v2.285l-.314.314L.5,304.836Zm3.032-3.27H1.243l-.314-.315.314-.314H3.527l.316.314Zm-2.6,2.837.314-.315H3.527l.316.315-.316.315H1.243Zm.314,2.837H3.527l.316.315-.316.314H1.243l-.314-.314Zm2.4-.119v-2.285l.315-.314.314.314v2.285l-.314.314Z" transform="translate(-0.495 -1.728)"/>
    <path d="M5.9,299.3v2.284l-.315.315-.314-.315V299.3l.314-.315Zm-.315,2.837.315.314v2.285l-.315.314-.314-.314v-2.285Zm.434-.434H8.3l.315.315-.315.314H6.014l-.315-.314Zm1.79-.168L6.063,299.8v-.445h.445l1.741,1.741v.445Zm-1.741,1.411V302.5h.445l2.139,2.14v.445H8.2Z" transform="translate(-0.495 -1.728)"/>
    <path d="M9.581,300.87l.315-.314.314.314v2.291l-.314.315-.315-.315Zm.844-.517H9.979v-.445l.963-.963h.446v.445Zm.517,4.733-.963-.963v-.445h.446l.963.963v.445Z" transform="translate(-0.495 -1.728)"/>
    <path d="M12.7,299.09l.315.315v2.276L12.7,302l-.314-.315V299.4Zm.315,3.461v2.285l-.315.314-.314-.314v-2.285l.314-.314Zm.119,2.4h2.284l.315.315-.315.314H13.13l-.315-.314Z" transform="translate(-0.495 -1.728)"/>
    <path d="M18.124,299.908v.445H17.68l-.963-.963v-.445h.445Zm-.444,3.77h.444v.445l-.962.963h-.445v-.445Zm.529-3.122.314.314v2.291l-.314.315-.315-.315V300.87Z" transform="translate(-0.495 -1.728)"/>
    <path d="M22.34,303.629l-.315.315h-.709L21,303.629l.314-.315h.709Zm.119-.119-.314-.315v-.708l.314-.315.314.315v.708Zm.144.382.17.17v.709l-.314.315-.314-.315v-.709l.17-.17.144-.144Zm-.025-.263.315-.315h.71l.314.315-.314.315h-.71l-.229-.229Z" transform="translate(-0.495 -1.728)"/>
    <path d="M26.71,298.984l.314.315v2.281l-.314.315-.314-.315V299.3Zm0,3.152.314.314v2.284l-.314.315-.314-.315V302.45Zm.434.192-.315-.314.09-.09.225-.225h2.284l.315.315-.315.314Zm.049.616V302.5h.445l2.139,2.139v.445h-.445Z" transform="translate(-0.495 -1.728)"/>
    <path d="M31.4,301.679l-.314.315-.314-.315V299.4l.314-.315.314.315Zm-.314.552.314.315v2.285l-.314.314-.314-.314v-2.285Zm.119-.118.315-.315H33.8l.315.315-.315.314H31.519Zm.315,3.466-.315-.315.315-.315H33.8l.315.315-.315.315Zm1.792-3.951-1.742-1.74v-.446h.446l1.741,1.742v.444Z" transform="translate(-0.495 -1.728)"/>
    <path d="M35.655,301.679l-.314.315-.315-.315V299.4l.315-.315.314.315Zm-.314.552.314.315v2.285l-.314.314-.315-.314v-2.285Zm.119-.118.314-.315h2.285l.315.315-.315.314H35.774Zm.314,3.466-.314-.315.314-.315h2.285l.315.315-.315.315Zm1.792-3.951-1.741-1.74v-.446h.446l1.741,1.742v.444Z" transform="translate(-0.495 -1.728)"/>
    <path d="M39.99,299.336v2.285l-.314.314-.315-.314v-2.285l.315-.315Zm-.629,3.151.315-.314.314.314v2.285l-.314.314-.315-.314Zm.748-.748h2.285l.315.315-.315.315H40.109l-.314-.315Zm1.79-.168-1.74-1.74v-.446H40.6l1.741,1.741v.445Z" transform="translate(-0.495 -1.728)"/>
    <path d="M43.932,299.09l.314.315v2.276l-.314.315-.315-.315V299.4Zm.314,3.461v2.285l-.314.314-.315-.314v-2.285l.315-.314Zm.119,2.4h2.284l.316.315-.316.314H44.365l-.314-.314Z" transform="translate(-0.495 -1.728)"/>
    <path d="M49.437,302.485l.314-.314.314.314v2.286l-.314.315-.314-.315Zm.843-.517h-.445v-.445l2.539-2.539h.444v.446Z" transform="translate(-0.495 -1.728)"/>
    <path d="M55.609,301.9l-.314-.315v-2.284l.314-.315.315.315v2.284Zm.084.648v-.446h.446l2.538,2.539v.445h-.445Zm2.95-3.681-.316.315H56.043l-.314-.315.314-.314h2.284Z" transform="translate(-0.495 -1.728)"/>
    <path d="M61.469,299.083l.314.314v2.284l-.314.315-.315-.315V299.4Zm2.718.195H61.9l-.314-.315.314-.314h2.285l.315.314Zm-2.6,2.837.314-.315h2.285l.315.315-.315.315H61.9Zm.314,2.837h2.285l.315.314-.315.315H61.9l-.314-.315Zm2.718.195-.314-.314v-2.285l.314-.314.315.314v2.285Z" transform="translate(-0.495 -1.728)"/>
    <path d="M66.405,301.682l-.314.314-.315-.314V299.4l.315-.314.314.314Zm-.629.866.315-.314.314.314v2.285l-.314.314-.315-.314Zm3.033-3.27H66.524l-.314-.315.314-.314h2.285l.315.314Zm-2.285,5.674h2.285l.315.315-.315.314H66.524l-.314-.314Zm2.4-3.27V299.4l.314-.314.315.314v2.285l-.315.314Zm0,.866.314-.314.315.314v2.285l-.315.314-.314-.314Z" transform="translate(-0.495 -1.728)"/>
    <path d="M1.124,311.214V313.5l-.314.314L.5,313.5v-2.285L.81,310.9Zm2.4,2.4.316.314-.316.315H1.243l-.314-.315.314-.314Zm.434.195-.315-.314v-2.285l.315-.314.314.314V313.5Zm-.315.553.315-.315.314.315v2.284l-.314.315-.315-.315Z" transform="translate(-0.495 -1.728)"/>
    <path d="M5.58,310.967l.315.315v2.276l-.315.315-.314-.315v-2.276Zm.315,3.461v2.285l-.315.314-.314-.314v-2.285l.314-.314Zm.119,2.4H8.3l.315.314-.315.315H6.014l-.315-.315Z" transform="translate(-0.495 -1.728)"/>
    <path d="M11.085,314.362l.314-.314.315.314v2.286l-.315.315-.314-.315Zm.844-.517h-.446V313.4l2.539-2.539h.445v.446Z" transform="translate(-0.495 -1.728)"/>
    <path d="M17.259,313.782l-.315-.315v-2.284l.315-.315.314.315v2.284Zm.084.648v-.446h.445l2.538,2.539v.445h-.444Zm2.949-3.681-.315.314H17.692l-.314-.314.314-.314h2.285Z" transform="translate(-0.495 -1.728)"/>
    <path d="M20.962,312.747l.314-.314.315.314v2.291l-.315.315-.314-.315Zm.844-.518H21.36v-.444l.963-.963h.446v.445Zm.517,4.734L21.36,316v-.445h.446l.963.963v.445Z" transform="translate(-0.495 -1.728)"/>
    <path d="M24.393,313.5l-.315.315-.314-.315v-2.284l.314-.315.315.315Zm0,.867v2.285l-.315.314-.314-.314v-2.285l.314-.314Zm.169,2.236v-.445l2.139-2.14h.445v.445l-2.14,2.14Zm2.982-3.1-.315.315-.314-.315v-2.284l.314-.315.315.315Z" transform="translate(-0.495 -1.728)"/>
    <path d="M28.848,310.967l.314.315v2.276l-.314.315-.315-.315v-2.276Zm.314,3.461v2.285l-.314.314-.315-.314v-2.285l.315-.314Zm.119,2.4h2.284l.316.314-.316.315H29.281l-.314-.315Z" transform="translate(-0.495 -1.728)"/>
    <path d="M34.275,311.785v.444h-.444l-.963-.962v-.445h.445Zm-.444,3.77h.444V316l-.962.963h-.445v-.445Zm.529-3.122.315.314v2.291l-.315.315-.315-.315v-2.291Z" transform="translate(-0.495 -1.728)"/>
    <path d="M37.154,317.144l.315-.315h2.284l.315.315-.315.314H37.469Zm2.949-2.623-2.14,2.14h-.444v-.445l2.139-2.14H40.1Z" transform="translate(-0.495 -1.728)"/>
    <path d="M43.206,313.5l-.314.314-.315-.314v-2.285l.315-.314.314.314Zm-.629.867.315-.315.314.315v2.284l-.314.315-.315-.315Z" transform="translate(-0.495 -1.728)"/>
    <path d="M44.406,310.959l.315.315v2.284l-.315.315-.314-.315v-2.284Zm2.718.2H44.84l-.315-.315.315-.314h2.284l.315.314Zm-2.6,2.837.315-.315h2.284l.315.315-.315.315H44.84Zm.315,2.837h2.284l.315.314-.315.315H44.84l-.315-.315Zm2.718.195-.315-.315v-2.284l.315-.314.314.314v2.284Z" transform="translate(-0.495 -1.728)"/>
    <path d="M49.343,313.559l-.315.314-.314-.314v-2.285l.314-.315.315.315Zm-.629.866.314-.314.315.314v2.285l-.315.314-.314-.314Zm3.032-3.27H49.462l-.315-.315.315-.314h2.284l.316.314Zm-2.284,5.674h2.284l.316.315-.316.314H49.462l-.315-.314Zm2.4-3.27v-2.285l.315-.315.314.315v2.285l-.314.314Zm0,.866.315-.314.314.314v2.285l-.314.314-.315-.314Z" transform="translate(-0.495 -1.728)"/>
    <path d="M1.124,325.438l-.314.315L.5,325.438v-2.284l.315-.315.314.315Zm-.629.867.315-.314.314.314v2.285L.81,328.9.5,328.59Zm3.032-3.27H1.243l-.314-.315.314-.314H3.527l.316.314Zm-2.6,2.837.314-.315H3.527l.316.315-.316.315H1.243Zm.314,2.836H3.527l.316.315-.316.315H1.243l-.314-.315Zm2.4-.118v-2.285l.315-.314.314.314v2.285l-.314.314Z" transform="translate(-0.495 -1.728)"/>
    <path d="M5.9,323.055v2.284l-.315.315-.314-.315v-2.284l.314-.315Zm-.315,2.837.315.314v2.285l-.315.314-.314-.314v-2.285Zm.434-.434H8.3l.315.314-.315.315H6.014l-.315-.315Zm1.79-.168-1.741-1.741V323.1h.445l1.741,1.741v.445ZM6.063,326.7v-.446h.445l2.139,2.14v.445H8.2Z" transform="translate(-0.495 -1.728)"/>
    <path d="M11.439,325.753l-.314-.315v-2.284l.314-.315.315.315v2.284Zm0,.238.315.314v2.285l-.315.314-.314-.314v-2.285Zm3.034-3.271-.316.315H11.873l-.314-.315.314-.314h2.284Zm0,3.152-.316.315H11.873l-.314-.315.314-.315h2.284Zm0,3.151-.316.315H11.873l-.314-.315.314-.315h2.284Zm-.316-5.988.316-.315Zm.119,2.4v-2.284l.315-.315.314.315v2.284l-.314.315-.086-.086Zm.273.6.042-.042.315.314v2.285l-.315.314-.086-.086-.229-.228v-2.285Z" transform="translate(-0.495 -1.728)"/>
    <path d="M16.436,325.436l-.315.314-.314-.314v-2.285l.314-.315.315.315Zm-.629.866.314-.314.315.314v2.285l-.315.314-.314-.314Zm3.032-3.27H16.555l-.315-.315.315-.314h2.284l.315.314Zm-2.284,5.674h2.284l.315.315-.315.314H16.555l-.315-.314Zm2.4-3.27v-2.285l.314-.315.315.315v2.285l-.315.314Zm0,.866.314-.314.315.314v2.285l-.315.314-.314-.314Z" transform="translate(-0.495 -1.728)"/>
    <path d="M22.376,322.742l.314.314v2.285l-.314.314-.314-.314v-2.285Zm.529,4.692.963.962v.446h-.445l-.963-.963v-.445Zm2.189-1.975.315.315-.315.315H22.81l-.315-.315.315-.315Zm-.614-2.752.963.962v.446H25l-.963-.963v-.445Zm.733,5.785v-2.284l.314-.315.315.315v2.284l-.315.315Zm0-2.284.314-.315Z" transform="translate(-0.495 -1.728)"/>
    <path d="M27.146,322.844l.315.315v2.276l-.315.315-.314-.315v-2.276Zm.315,3.461v2.285l-.315.314-.314-.314v-2.285l.314-.314Zm.119,2.4h2.284l.316.315-.316.315H27.58l-.314-.315Z" transform="translate(-0.495 -1.728)"/>
    <path d="M31.8,328.586l-.257.257-.058.058-.314-.315V326.3l.314-.314.315.314ZM34.15,323.2v.445l-2.139,2.14h-.446v-.446l2.14-2.139Zm.049,5.5.316.315-.316.314H31.915l-.314-.314.314-.315Zm.119-3.263v-2.29l.315-.315.315.315v2.29l-.308.308-.007-.007-.007.007Zm0,.853.308-.307.007.007.007-.007.307.307v2.291l-.314.315-.315-.315Zm.315-.552.007.007-.007.007-.007-.007Z" transform="translate(-0.495 -1.728)"/>
    <path d="M36.566,325.428l-.314.315-.314-.315v-2.284l.314-.315.314.315Zm-.315.554.315.316v2.282l-.314.314-.314-.314V326.3Zm.12-.118h0l.316.316h0Zm.315,3.467-.315-.315.315-.315,2.284,0,.315.314-.315.315Zm0-3.152-.316-.316.314-.313,2.284-.006.315.315-.315.315Z" transform="translate(-0.495 -1.728)"/>
    <path d="M42.071,325.684l-.314-.315v-2.285l.314-.314.315.314v2.285Zm.53.2,2.139,2.14v.445H44.3l-2.14-2.139v-.446Zm2.307,2.634v-2.284l.315-.315.314.315v2.284l-.314.315Zm.317-2.837-.315-.314v-2.285l.315-.314.314.314v2.285Z" transform="translate(-0.495 -1.728)"/>
    <path d="M46.527,325.375v-2.284l.315-.315.314.315v2.284l-.314.315Zm0,.867.315-.314.314.314v2.284l-.314.315-.315-.315Zm1.244-3.1,2.14,2.139v.445h-.445l-2.14-2.14v-.444Zm2.222,2.789.315.314v2.284l-.315.315-.314-.315v-2.284Z" transform="translate(-0.495 -1.728)"/>
    <path d="M51.543,322.742l.314.314v2.285l-.314.314-.314-.314v-2.285Zm.529,4.692.963.962v.446H52.59l-.963-.963v-.445Zm2.189-1.975.315.315-.315.315H51.977l-.315-.315.315-.315Zm-.614-2.752.963.962v.446h-.444l-.963-.963v-.445Zm.733,5.785v-2.284l.314-.315.315.315v2.284l-.315.315Zm0-2.284.314-.315Z" transform="translate(-0.495 -1.728)"/>
    <path d="M56.628,325.433l-.315.315L56,325.433v-2.284l.314-.315.315.315Zm-.315.552.315.315v2.284l-.315.315L56,328.584V326.3Zm.12-.118.314-.315h2.284l.316.315-.316.314H56.747Zm.314,3.466-.314-.315.314-.315h2.284l.316.315-.316.315Zm1.792-3.951-1.741-1.74V323.2h.445l1.741,1.742v.444Z" transform="translate(-0.495 -1.728)"/>
    <path d="M60.884,325.433l-.315.315-.314-.315v-2.284l.314-.315.315.315Zm-.315.552.315.315v2.284l-.315.315-.314-.315V326.3Zm.119-.118.315-.315h2.284l.316.315-.316.314H61ZM61,329.333l-.315-.315L61,328.7h2.284l.316.315-.316.315Zm1.792-3.951-1.741-1.74V323.2H61.5l1.741,1.742v.444Z" transform="translate(-0.495 -1.728)"/>
    <path d="M64.511,325.375v-2.284l.314-.315.315.315v2.284l-.315.315Zm0,.867.314-.314.315.314v2.284l-.315.315-.314-.315Zm1.244-3.1,2.14,2.139v.445h-.446l-2.139-2.14v-.444Zm2.222,2.789.314.314v2.284l-.314.315-.315-.315v-2.284Z" transform="translate(-0.495 -1.728)"/>
    <path d="M71.08,328.9l-.314-.315V326.3l.314-.314.315.314v2.284Zm2.718-6.5.315.314-.315.315H71.514l-.315-.315.315-.314Zm-2.284,3.151H73.8l.315.315-.315.315H71.514l-.315-.315ZM71.2,329.02l.315-.314H73.8l.315.314-.315.315H71.514Zm2.718-3.585v-2.284l.314-.315.315.315v2.284l-.315.315Z" transform="translate(-0.495 -1.728)"/>
    <path d="M76.165,323.055v2.284l-.314.315-.315-.315v-2.284l.315-.315Zm-.314,2.837.314.314v2.285l-.314.314-.315-.314v-2.285Zm.433-.434h2.284l.316.314-.316.315H76.284l-.314-.315Zm1.79-.168-1.74-1.741V323.1h.444l1.742,1.741v.445Zm-1.74,1.411v-.446h.444l2.14,2.14v.445h-.444Z" transform="translate(-0.495 -1.728)"/>
    <path d="M81.4,329.021l.314-.315h2.284l.316.315-.316.314H81.709Zm2.948-2.623-2.14,2.14h-.444v-.445l2.139-2.14h.445Z" transform="translate(-0.495 -1.728)"/>
    <path d="M87.447,325.376l-.314.314-.315-.314v-2.285l.315-.314.314.314Zm-.629.867.315-.315.314.315v2.284l-.314.315-.315-.315Z" transform="translate(-0.495 -1.728)"/>
    <path d="M88.647,322.836l.315.315v2.284l-.315.315-.314-.315v-2.284Zm2.718.2H89.081l-.314-.315.314-.314h2.284l.316.314Zm-2.6,2.837.314-.315h2.284l.316.315-.316.315H89.081Zm.314,2.837h2.284l.316.314-.316.315H89.081l-.314-.315Zm2.718.195-.315-.315V326.3l.315-.314.314.314v2.284Z" transform="translate(-0.495 -1.728)"/>
    <path d="M93.584,325.436l-.314.314-.315-.314v-2.285l.315-.315.314.315Zm-.629.866.315-.314.314.314v2.285l-.314.314-.315-.314Zm3.032-3.27H93.7l-.314-.315.314-.314h2.284l.316.314ZM93.7,328.706h2.284l.316.315-.316.314H93.7l-.314-.314Zm2.4-3.27v-2.285l.315-.315.314.315v2.285l-.314.314Zm0,.866.315-.314.314.314v2.285l-.314.314-.315-.314Z" transform="translate(-0.495 -1.728)"/>
    <path d="M.81,334.713l.314.315v2.284l-.314.315L.5,337.312v-2.284Zm2.717.2H1.243l-.314-.315.314-.314H3.527l.316.314Zm-2.6,2.837.314-.315H3.527l.316.315-.316.315H1.243Zm.314,2.837H3.527l.316.314-.316.315H1.243L.929,340.9Zm2.718.195-.315-.315v-2.284l.315-.314.314.314v2.284Z" transform="translate(-0.495 -1.728)"/>
    <path d="M5.58,334.721l.315.315v2.276l-.315.315-.314-.315v-2.276Zm.315,3.461v2.285l-.315.314-.314-.314v-2.285l.314-.314Zm.119,2.4H8.3l.315.315-.315.315H6.014L5.7,340.9Z" transform="translate(-0.495 -1.728)"/>
    <path d="M11.085,338.116l.314-.314.315.314V340.4l-.315.315-.314-.315Zm.844-.517h-.446v-.445l2.539-2.539h.445v.446Z" transform="translate(-0.495 -1.728)"/>
    <path d="M17.259,337.536l-.315-.315v-2.284l.315-.315.314.315v2.284Zm.084.648v-.446h.445l2.538,2.539v.445h-.444Zm2.949-3.681-.315.314H17.692l-.314-.314.314-.315h2.285Z" transform="translate(-0.495 -1.728)"/>
    <path d="M25.717,334.594l-.316.315H23.117l-.314-.315.314-.314H25.4Zm0,3.152-.316.315H23.117l-.314-.315.314-.315H25.4Zm-2.6,2.837H25.4l.316.314-.316.315H23.117L22.8,340.9Zm2.718-2.956-.314-.315v-2.284l.17-.171.144-.144.315.315v2.284Zm.315,2.836-.315.315-.314-.315v-2.284l.17-.171.144-.143.315.314Z" transform="translate(-0.495 -1.728)"/>
    <path d="M27.678,337.312l-.315.315-.314-.315v-2.284l.314-.315.315.315Zm-.629.867.314-.314.315.314v2.285l-.315.314-.314-.314Zm3.032-3.27H27.8l-.315-.315.315-.314h2.284l.315.314ZM27.8,340.583h2.284l.315.314-.315.315H27.8l-.315-.315Zm2.4-3.271v-2.284l.315-.315.314.315v2.284l-.314.315Zm0,.867.315-.314.314.314v2.285l-.314.314-.315-.314Z" transform="translate(-0.495 -1.728)"/>
    <path d="M.81,346.59l.314.314v2.284L.81,349.5.5,349.188V346.9Zm2.717.2H1.243l-.314-.315.314-.315H3.527l.316.315Zm-2.6,2.836.314-.314H3.527l.316.314-.316.315H1.243Zm.314,2.837H3.527l.316.314-.316.315H1.243l-.314-.315Zm2.718.2-.315-.315v-2.284l.315-.315.314.315v2.284Z" transform="translate(-0.495 -1.728)"/>
    <path d="M5.9,346.808v2.285l-.315.314-.314-.314v-2.285l.314-.314Zm-.315,2.837.315.314v2.285l-.315.315-.314-.315v-2.285Zm.434-.434H8.3l.315.315-.315.315H6.014l-.315-.315Zm1.79-.168L6.063,347.3v-.445h.445L8.249,348.6v.445Zm-1.741,1.411v-.445h.445l2.139,2.139v.445H8.2Z" transform="translate(-0.495 -1.728)"/>
    <path d="M9.581,348.377l.315-.314.314.314v2.291l-.314.315-.315-.315Zm.844-.517H9.979v-.445l.963-.962h.446v.444Zm.517,4.733-.963-.963v-.444h.446l.963.962v.445Z" transform="translate(-0.495 -1.728)"/>
    <path d="M12.7,346.6l.315.315v2.276l-.315.315-.314-.315v-2.276Zm.315,3.462v2.284l-.315.315-.314-.315v-2.284l.314-.315Zm.119,2.4h2.284l.315.315-.315.314H13.13l-.315-.314Z" transform="translate(-0.495 -1.728)"/>
    <path d="M18.124,347.415v.445H17.68l-.963-.963v-.444h.445Zm-.444,3.771h.444v.444l-.962.963h-.445v-.445Zm.529-3.123.314.314v2.291l-.314.315-.315-.315v-2.291Z" transform="translate(-0.495 -1.728)"/>
    <path d="M21,352.774l.314-.315H23.6l.315.315-.315.314H21.316Zm2.948-2.623-2.139,2.14h-.445v-.445l2.14-2.139h.444Z" transform="translate(-0.495 -1.728)"/>
    <path d="M26.426,349.993l.314-.315.315.315v2.286l-.315.314-.314-.314Zm.844-.518h-.446v-.445l2.539-2.538h.445v.445Z" transform="translate(-0.495 -1.728)"/>
    <path d="M32.284,349.994l.315-.314.314.314v2.285l-.314.314-.315-.314Zm3.032-.748.093.092.223.223-.316.314H33.032l-.314-.314.314-.315Zm-.048-1.908-1.741,1.74h-.445v-.445l1.74-1.74h.446Z" transform="translate(-0.495 -1.728)"/>
    <path d="M36.934,349.442l-.315-.314v-2.285l.315-.314.314.314v2.285Zm0,3.152-.315-.315V350l.315-.315.314.315v2.284Z" transform="translate(-0.495 -1.728)"/>
    <path d="M38.242,349.128v-2.284l.315-.314.314.314v2.284l-.314.315Zm0,.868.315-.315.314.315v2.284l-.314.315-.315-.315Zm1.244-3.1,2.14,2.14v.445h-.445l-2.14-2.14v-.445Zm2.222,2.789.314.315v2.284l-.314.315-.314-.315V350Z" transform="translate(-0.495 -1.728)"/>
    <path d="M43.327,349.442l-.314-.314v-2.285l.314-.314.315.314v2.285Zm0,3.152-.314-.315V350l.314-.315.315.315v2.284Z" transform="translate(-0.495 -1.728)"/>
    <path d="M44.95,346.5l.315.315v2.284l-.315.315-.314-.315V346.81Zm.529,4.693.963.962v.445H46l-.963-.963v-.444Zm2.189-1.975.315.315-.315.314H45.384l-.315-.314.315-.315Zm-.613-2.753.963.963v.445h-.445l-.963-.963v-.445Zm.732,5.786v-2.285l.315-.315.314.315v2.285l-.314.314Zm0-2.285.315-.315Z" transform="translate(-0.495 -1.728)"/>
    <path d="M49.406,350l.315-.315.314.315v2.284l-.314.315-.315-.315Zm3.348-.433-.316.314H50.154l-.314-.314.314-.315h2.284Zm-.41-3.069h.444v.445l-2.141,2.14H50.2v-.445Zm.214,5.786V350l.314-.315.316.315v2.284l-.316.315Z" transform="translate(-0.495 -1.728)"/>
    <path d="M3.094,364.336l.315.315-.315.314H.81L.5,364.651l.315-.315Z" transform="translate(-0.495 -1.728)"/>
    <path d="M6.992,363.725v.443H6.546L4.4,362.026v-.444H4.85Zm-2.238.611H6.477v0H7.04l.313.313-.315.314H4.754l-.315-.314Zm1.724,0v0h.561l0,0Z" transform="translate(-0.495 -1.728)"/>
    <path d="M10.457,361.069l-.314.314-.315-.314v-2.285l.315-.314.314.314Zm-.629.867.315-.315.314.315v2.284l-.314.315-.315-.315Zm3.032-3.27H10.576l-.314-.315.314-.315H12.86l.316.315Zm-2.6,2.836.314-.314H12.86l.316.314-.316.315H10.576Zm.314,2.837H12.86l.316.315-.316.314H10.576l-.314-.314Zm2.4-.119v-2.284l.315-.315.314.315v2.284l-.314.315Z" transform="translate(-0.495 -1.728)"/>
    <path d="M14.913,358.474l.315.315v2.276l-.315.315-.314-.315v-2.276Zm.315,3.462v2.284l-.315.315-.314-.315v-2.284l.314-.315Zm.119,2.4h2.284l.315.315-.315.314H15.347l-.315-.314Z" transform="translate(-0.495 -1.728)"/>
    <path d="M20.418,360.254l.314-.314.315.314v2.291l-.315.315-.314-.315Zm.844-.517h-.446v-.445l.963-.962h.446v.444Zm.517,4.733-.963-.963v-.445h.446l.963.963v.445Z" transform="translate(-0.495 -1.728)"/>
    <path d="M23.533,358.474l.315.315v2.276l-.315.315-.314-.315v-2.276Zm.315,3.462v2.284l-.315.315-.314-.315v-2.284l.314-.315Zm.119,2.4h2.284l.315.315-.315.314H23.967l-.315-.314Z" transform="translate(-0.495 -1.728)"/>
    <path d="M28.961,359.292v.445h-.444l-.963-.963v-.444H28Zm-.444,3.77h.444v.445L28,364.47h-.445v-.445Zm.529-3.122.314.314v2.291l-.314.315-.316-.315v-2.291Z" transform="translate(-0.495 -1.728)"/>
    <path d="M32.468,361.059l-.315.315-.314-.315v-2.285l.314-.315.315.315Zm-.316.553.316.316v2.282l-.315.315-.314-.315v-2.284Zm.12-.117h0l.317.316h0Zm.315,3.466-.315-.315.315-.314,2.284-.006.316.315-.316.315Zm0-3.151-.317-.316.314-.314,2.284,0,.316.314-.316.315Z" transform="translate(-0.495 -1.728)"/>
    <path d="M36.8,364.216l-.257.258-.058.057-.314-.315v-2.29l.314-.315.315.315Zm2.354-5.385v.445l-2.139,2.14h-.446v-.445l2.14-2.14Zm.049,5.5.315.315-.315.314H36.922l-.315-.314.315-.315Zm.119-3.262v-2.291l.315-.315.315.315v2.291l-.309.307-.006-.006-.007.006Zm0,.853.308-.308.007.007.006-.007.308.308v2.29l-.314.315-.315-.315Zm.315-.552.006.006-.006.007-.007-.007Z" transform="translate(-0.495 -1.728)"/>
    <path d="M42.743,358.372l.315.315v2.284l-.315.315-.314-.315v-2.284Zm.529,4.692.963.963v.445H43.79l-.963-.963v-.445Zm2.189-1.974.315.315-.315.314H43.177l-.315-.314.315-.315Zm-.613-2.753.963.963v.445h-.445l-.963-.963v-.445Zm.732,5.786v-2.285l.315-.315.314.315v2.285l-.314.314Zm0-2.285.315-.315Z" transform="translate(-0.495 -1.728)"/>
    <path d="M47.828,361.059l-.314.315-.315-.315v-2.285l.315-.315.314.315Zm-.315.553.315.316v2.282l-.314.315-.315-.315v-2.284Zm.12-.117h0l.316.316h0Zm.314,3.466-.314-.315.314-.314,2.284-.006.316.315-.316.315Zm0-3.151-.316-.316.313-.314,2.284,0,.316.314-.316.315Z" transform="translate(-0.495 -1.728)"/>
    <path d="M52.163,364.216l-.257.258-.057.057-.315-.315v-2.29l.315-.315.314.315Zm2.355-5.385v.445l-2.14,2.14h-.445v-.445l2.139-2.14Zm.048,5.5.316.315-.316.314H52.282l-.314-.314.314-.315Zm.12-3.262v-2.291l.314-.315.315.315v2.291l-.308.307L55,361.374l-.007.006Zm0,.853.307-.308.007.007.007-.007.307.308v2.29l-.314.315-.314-.315Zm.314-.552.007.006-.007.007-.007-.007Z" transform="translate(-0.495 -1.728)"/>
    <path d="M56.934,358.72v2.285l-.315.314-.314-.314V358.72l.314-.314Zm-.629,3.152.314-.315.315.315v2.284l-.315.315-.314-.315Zm.748-.748h2.284l.315.314-.315.315H57.053l-.315-.315Zm1.79-.168-1.74-1.742v-.444h.444l1.741,1.741v.445Z" transform="translate(-0.495 -1.728)"/>
  </g>
</svg>
